<svg width="500" height="500" viewBox="0 0 500 500" fill="none" xmlns="http://www.w3.org/2000/svg">
<path d="M282.77 441.4C307.711 441.4 327.93 429.728 327.93 415.33C327.93 400.932 307.711 389.26 282.77 389.26C257.829 389.26 237.61 400.932 237.61 415.33C237.61 429.728 257.829 441.4 282.77 441.4Z" fill="#E0E0E0"/>
<path d="M383.839 335C366.339 345 372.898 371.5 397.839 371.5C413.083 371.5 419.744 371.861 428.839 369C434.625 367.18 428.839 356.098 428.839 350.5C428.839 344.531 397.839 335 383.839 335Z" fill="#E0E0E0"/>
<path d="M259.3 327.05L138.51 396.8C135.11 398.8 129.18 398.52 125.25 396.25L82.37 371.49C78.45 369.23 78.02 365.8 81.37 363.84L202.16 294.09C205.56 292.09 211.49 292.37 215.42 294.64L258.3 319.4C262.27 321.66 262.7 325.09 259.3 327.05Z" fill="#E0E0E0"/>
<path d="M389.36 351.4L398.88 356.93C398.88 356.93 394.08 341.61 396.74 326.19C397.383 322.56 398.695 319.08 400.61 315.93C401.36 314.37 407.1 304.76 402.05 300.32C397 295.88 385.15 304.71 385.68 328.45C385.934 336.225 387.171 343.936 389.36 351.4V351.4Z" fill="#BA68C8"/>
<path opacity="0.5" d="M389.36 351.4L398.88 356.93C398.88 356.93 394.08 341.61 396.74 326.19C397.383 322.56 398.695 319.08 400.61 315.93C401.36 314.37 407.1 304.76 402.05 300.32C397 295.88 385.15 304.71 385.68 328.45C385.934 336.225 387.171 343.936 389.36 351.4V351.4Z" fill="black"/>
<path d="M393.79 354.41C393.7 354.409 393.613 354.381 393.54 354.329C393.466 354.277 393.411 354.204 393.38 354.12C393.38 354.02 389.75 344.03 389.94 328.01C390.13 311.99 398.6 303.29 398.69 303.21C398.729 303.17 398.776 303.138 398.827 303.117C398.879 303.095 398.934 303.084 398.99 303.084C399.046 303.084 399.101 303.095 399.153 303.117C399.204 303.138 399.251 303.17 399.29 303.21C399.33 303.25 399.362 303.297 399.384 303.35C399.406 303.402 399.417 303.458 399.417 303.515C399.417 303.572 399.406 303.628 399.384 303.68C399.362 303.733 399.33 303.78 399.29 303.82C399.21 303.9 390.99 312.27 390.8 328.02C390.61 343.77 394.16 353.73 394.19 353.83C394.211 353.882 394.221 353.939 394.219 353.995C394.218 354.051 394.205 354.107 394.182 354.158C394.158 354.209 394.125 354.255 394.083 354.294C394.042 354.332 393.993 354.361 393.94 354.38L393.79 354.41Z" fill="white"/>
<path d="M396.74 355.72L412.46 365C412.46 365 419.66 363.94 419.12 357.16C418.58 350.38 415.65 348.79 419.29 345.81C422.93 342.83 423.87 342.64 423.69 339.72C423.51 336.8 421.56 335.53 420.63 334.38C419.7 333.23 417.14 330.79 418.95 327.28C420.76 323.77 423.21 320.36 419.57 318.74C417.39 317.74 413.73 318.99 411.31 321.56C408.89 324.13 406.88 325.99 404.59 326.56C402.3 327.13 397.5 327.2 397.66 331.16C397.82 335.12 398.85 336.49 397.89 338.24C396.08 341.55 388.35 343.34 396.74 355.72Z" fill="#E3E3E3"/>
<path opacity="0.2" d="M396.74 355.72L412.46 365C412.46 365 419.66 363.94 419.12 357.16C418.58 350.38 415.65 348.79 419.29 345.81C422.93 342.83 423.87 342.64 423.69 339.72C423.51 336.8 421.56 335.53 420.63 334.38C419.7 333.23 417.14 330.79 418.95 327.28C420.76 323.77 423.21 320.36 419.57 318.74C417.39 317.74 413.73 318.99 411.31 321.56C408.89 324.13 406.88 325.99 404.59 326.56C402.3 327.13 397.5 327.2 397.66 331.16C397.82 335.12 398.85 336.49 397.89 338.24C396.08 341.55 388.35 343.34 396.74 355.72Z" fill="black"/>
<path d="M403.14 359.92C403.031 359.92 402.926 359.879 402.846 359.805C402.766 359.731 402.718 359.629 402.71 359.52C402.71 359.29 400.99 335.85 417.27 320.46C417.354 320.382 417.465 320.34 417.579 320.344C417.694 320.347 417.802 320.396 417.88 320.48C417.958 320.564 418 320.675 417.996 320.789C417.993 320.904 417.944 321.012 417.86 321.09C401.86 336.19 403.56 359.22 403.58 359.45C403.588 359.565 403.551 359.679 403.476 359.767C403.401 359.855 403.295 359.91 403.18 359.92H403.14Z" fill="white"/>
<path d="M406 339.83C405.891 339.83 405.786 339.789 405.706 339.715C405.626 339.641 405.578 339.539 405.57 339.43C405.448 337.63 404.962 335.874 404.14 334.269C403.318 332.663 402.178 331.241 400.79 330.09C400.744 330.056 400.705 330.014 400.675 329.966C400.646 329.917 400.626 329.863 400.617 329.807C400.608 329.751 400.611 329.694 400.624 329.638C400.637 329.583 400.662 329.531 400.695 329.485C400.728 329.439 400.771 329.4 400.819 329.37C400.868 329.341 400.922 329.321 400.978 329.312C401.034 329.303 401.091 329.306 401.147 329.319C401.202 329.332 401.254 329.357 401.3 329.39C402.8 330.612 404.03 332.131 404.913 333.853C405.795 335.574 406.312 337.459 406.43 339.39C406.438 339.503 406.402 339.614 406.329 339.7C406.256 339.786 406.152 339.84 406.04 339.85L406 339.83Z" fill="white"/>
<path d="M404.8 343.83C404.693 343.832 404.589 343.792 404.51 343.72C404.431 343.638 404.387 343.529 404.387 343.415C404.387 343.301 404.431 343.192 404.51 343.11C404.68 342.92 408.78 338.49 418.26 339.79C418.372 339.81 418.473 339.871 418.542 339.962C418.61 340.053 418.642 340.167 418.63 340.28C418.613 340.393 418.552 340.496 418.46 340.565C418.369 340.634 418.254 340.664 418.14 340.65C409.14 339.42 405.19 343.65 405.14 343.65C405.103 343.706 405.052 343.752 404.993 343.784C404.934 343.815 404.867 343.831 404.8 343.83V343.83Z" fill="white"/>
<path d="M101.12 337.94L96.43 347.89C96.43 347.89 91.68 332.55 80.74 321.36C78.1585 318.731 75.1054 316.611 71.74 315.11C70.25 314.25 60.07 309.59 61.74 303.11C63.41 296.63 78.14 297.11 91.18 316.98C95.3637 323.52 98.7035 330.562 101.12 337.94V337.94Z" fill="#BA68C8"/>
<path opacity="0.5" d="M101.12 337.94L96.43 347.89C96.43 347.89 91.68 332.55 80.74 321.36C78.1585 318.731 75.1054 316.611 71.74 315.11C70.25 314.25 60.07 309.59 61.74 303.11C63.41 296.63 78.14 297.11 91.18 316.98C95.3637 323.52 98.7035 330.562 101.12 337.94V337.94Z" fill="black"/>
<path d="M98.94 343C98.8448 342.999 98.7524 342.968 98.6767 342.91C98.6009 342.852 98.546 342.772 98.52 342.68C98.52 342.58 95.82 332.45 86.67 319.5C77.52 306.55 66.07 304.41 66 304.39C65.9441 304.38 65.8907 304.36 65.8428 304.329C65.7949 304.299 65.7535 304.259 65.7209 304.213C65.6884 304.166 65.6654 304.114 65.6532 304.059C65.641 304.003 65.6399 303.946 65.65 303.89C65.6719 303.778 65.7362 303.68 65.8295 303.614C65.9227 303.549 66.0376 303.522 66.15 303.54C66.27 303.54 78.15 305.84 87.43 319C96.71 332.16 99.43 342.36 99.43 342.46C99.4576 342.571 99.4406 342.689 99.3827 342.788C99.3248 342.887 99.2306 342.959 99.12 342.99L98.94 343Z" fill="white"/>
<path d="M97.5 345.69L89.8 362.22C89.8 362.22 83.27 365.43 79.88 359.54C76.49 353.65 77.98 350.68 73.3 350.29C68.62 349.9 67.72 350.29 66.21 347.78C64.7 345.27 65.59 343.11 65.7 341.64C65.81 340.17 66.55 336.7 63.06 334.83C59.57 332.96 55.62 331.56 57.71 328.16C58.95 326.16 62.65 325.05 66.11 325.8C69.57 326.55 72.26 326.93 74.49 326.12C76.72 325.31 80.69 322.63 82.81 325.98C84.93 329.33 84.81 331.04 86.64 331.98C90 333.64 97.38 330.72 97.5 345.69Z" fill="#E3E3E3"/>
<path opacity="0.2" d="M97.5 345.69L89.8 362.22C89.8 362.22 83.27 365.43 79.88 359.54C76.49 353.65 77.98 350.68 73.3 350.29C68.62 349.9 67.72 350.29 66.21 347.78C64.7 345.27 65.59 343.11 65.7 341.64C65.81 340.17 66.55 336.7 63.06 334.83C59.57 332.96 55.62 331.56 57.71 328.16C58.95 326.16 62.65 325.05 66.11 325.8C69.57 326.55 72.26 326.93 74.49 326.12C76.72 325.31 80.69 322.63 82.81 325.98C84.93 329.33 84.81 331.04 86.64 331.98C90 333.64 97.38 330.72 97.5 345.69Z" fill="black"/>
<path d="M94.36 352.85C94.2842 352.85 94.2098 352.83 94.1447 352.791C94.0795 352.752 94.0261 352.697 93.99 352.63C93.87 352.43 82.18 332.52 60.46 329.15C60.4032 329.142 60.3487 329.122 60.2996 329.092C60.2506 329.062 60.208 329.023 60.1745 328.976C60.1409 328.929 60.1171 328.877 60.1043 328.821C60.0915 328.765 60.09 328.707 60.1 328.65C60.1072 328.594 60.1258 328.539 60.1547 328.49C60.1836 328.441 60.2221 328.399 60.2679 328.365C60.3137 328.331 60.3659 328.307 60.4212 328.294C60.4766 328.282 60.534 328.28 60.59 328.29C82.73 331.73 94.59 352 94.74 352.2C94.7761 352.267 94.7945 352.341 94.7933 352.417C94.7921 352.493 94.7714 352.567 94.7332 352.632C94.695 352.697 94.6406 352.752 94.5752 352.79C94.5098 352.828 94.4357 352.849 94.36 352.85V352.85Z" fill="white"/>
<path d="M80.65 337.91C80.573 337.91 80.4973 337.889 80.4306 337.851C80.3639 337.812 80.3085 337.757 80.27 337.69C79.2769 336.034 78.6372 334.19 78.3911 332.275C78.145 330.359 78.2978 328.413 78.84 326.56C78.859 326.507 78.8884 326.458 78.9263 326.416C78.9643 326.374 79.0101 326.34 79.0612 326.316C79.1122 326.292 79.1676 326.278 79.224 326.275C79.2804 326.273 79.3368 326.281 79.39 326.3C79.4432 326.319 79.4921 326.348 79.534 326.386C79.5758 326.424 79.6098 326.47 79.6339 326.521C79.6581 326.572 79.6719 326.628 79.6747 326.684C79.6774 326.74 79.6691 326.797 79.65 326.85C79.1611 328.587 79.0286 330.404 79.2606 332.193C79.4926 333.982 80.0843 335.706 81 337.26C81.0285 337.309 81.047 337.363 81.0544 337.42C81.0618 337.476 81.058 337.534 81.0431 337.588C81.0282 337.643 81.0026 337.695 80.9678 337.74C80.9329 337.784 80.8895 337.822 80.84 337.85C80.7829 337.886 80.7175 337.907 80.65 337.91V337.91Z" fill="white"/>
<path d="M71.06 345.51C71 345.509 70.9408 345.496 70.8859 345.472C70.8309 345.448 70.7813 345.413 70.74 345.37C70.6998 345.33 70.6679 345.283 70.6461 345.23C70.6243 345.178 70.6131 345.122 70.6131 345.065C70.6131 345.008 70.6243 344.952 70.6461 344.9C70.6679 344.848 70.6998 344.8 70.74 344.76C77.8 338.31 83.74 339.63 83.94 339.69C83.9953 339.703 84.0474 339.727 84.0935 339.76C84.1395 339.793 84.1786 339.835 84.2083 339.883C84.2381 339.932 84.2579 339.985 84.2668 340.042C84.2757 340.098 84.2734 340.155 84.26 340.21C84.2483 340.266 84.2254 340.319 84.1925 340.366C84.1597 340.413 84.1176 340.452 84.0689 340.482C84.0203 340.512 83.966 340.532 83.9094 340.54C83.8529 340.548 83.7952 340.545 83.74 340.53C83.68 340.53 78.02 339.28 71.32 345.4C71.247 345.463 71.156 345.502 71.06 345.51V345.51Z" fill="white"/>
<path d="M97.61 136.5C97.6111 133.588 98.3775 130.728 99.8325 128.206C101.287 125.684 103.38 123.588 105.9 122.13L211.42 61.21C212.124 60.8041 212.91 60.5611 213.72 60.4988C214.53 60.4365 215.344 60.5566 216.102 60.8501C216.86 61.1436 217.542 61.6031 218.099 62.1949C218.656 62.7867 219.073 63.4958 219.32 64.27C219.037 63.0296 218.506 61.8591 217.761 60.8282C217.015 59.7973 216.069 58.9273 214.98 58.27L214.6 58.05C211.974 56.4877 208.976 55.6621 205.92 55.66V55.66C204.943 55.6508 203.983 55.9065 203.14 56.4L97.62 117.35C95.096 118.805 92.9999 120.899 91.5428 123.422C90.0857 125.945 89.319 128.807 89.32 131.72V359.91C89.3212 360.863 89.573 361.8 90.05 362.625C90.527 363.45 91.2126 364.136 92.038 364.613C92.8634 365.09 93.7997 365.342 94.7531 365.343C95.7064 365.344 96.6434 365.095 97.47 364.62L97.61 364.54V136.5Z" fill="#37474F"/>
<path d="M211.28 308.48L105.76 369.4C104.935 369.878 103.998 370.13 103.044 370.13C102.091 370.131 101.154 369.881 100.327 369.404C99.5012 368.928 98.8151 368.242 98.3381 367.416C97.8611 366.591 97.61 365.654 97.61 364.7V136.5C97.6111 133.588 98.3775 130.728 99.8325 128.206C101.287 125.684 103.38 123.588 105.9 122.13L211.42 61.21C212.247 60.7351 213.184 60.4857 214.137 60.4869C215.09 60.4882 216.027 60.7399 216.852 61.2169C217.677 61.6939 218.363 62.3795 218.84 63.2049C219.317 64.0304 219.569 64.9666 219.57 65.92V294.11C219.571 297.022 218.805 299.883 217.35 302.406C215.895 304.928 213.801 307.023 211.28 308.48Z" fill="#455A64"/>
<path d="M97.61 364.7V136.5C97.6111 134.014 98.1716 131.56 99.25 129.32L91.09 124.32C89.9278 126.632 89.3217 129.183 89.32 131.77V361.87C89.3202 362.775 89.5553 363.665 90.0023 364.452C90.4492 365.239 91.0928 365.896 91.87 366.36L96.08 368.86C97.5371 369.73 99.2027 370.19 100.9 370.19H103C102.286 370.183 101.579 370.036 100.922 369.757C100.264 369.477 99.6684 369.071 99.1679 368.561C98.6674 368.052 98.2722 367.448 98.0049 366.786C97.7376 366.123 97.6034 365.414 97.61 364.7V364.7Z" fill="#263238"/>
<path d="M207.65 83.15V275C207.648 277.572 206.97 280.099 205.683 282.326C204.397 284.553 202.547 286.403 200.32 287.69L107.14 341.48C106.438 341.888 105.642 342.108 104.83 342.12C105.099 342.742 105.496 343.3 105.996 343.757C106.496 344.214 107.087 344.561 107.73 344.773C108.373 344.986 109.054 345.06 109.728 344.99C110.402 344.921 111.054 344.709 111.64 344.37L204.82 290.57C207.047 289.283 208.895 287.433 210.18 285.206C211.465 282.978 212.141 280.452 212.14 277.88V87.93C212.142 86.7109 211.679 85.5371 210.844 84.6486C210.009 83.76 208.867 83.224 207.65 83.15V83.15Z" fill="#37474F"/>
<path d="M104.83 342.07C105.642 342.058 106.438 341.838 107.14 341.43L200.32 287.64C202.54 286.357 204.385 284.515 205.671 282.298C206.957 280.08 207.639 277.564 207.65 275V83.15C206.715 83.1579 205.792 83.3731 204.95 83.78L111.77 137.57C109.542 138.855 107.691 140.705 106.404 142.933C105.117 145.16 104.44 147.687 104.44 150.26V340.16C104.439 340.827 104.575 341.488 104.84 342.1L104.83 342.07Z" fill="#FAB700"/>
<g opacity="0.5">
<path opacity="0.5" d="M104.83 342.07C105.642 342.058 106.438 341.838 107.14 341.43L200.32 287.64C202.54 286.357 204.385 284.515 205.671 282.298C206.957 280.08 207.639 277.564 207.65 275V83.15C206.715 83.1579 205.792 83.3731 204.95 83.78L111.77 137.57C109.542 138.855 107.691 140.705 106.404 142.933C105.117 145.16 104.44 147.687 104.44 150.26V340.16C104.439 340.827 104.575 341.488 104.84 342.1L104.83 342.07Z" fill="white"/>
</g>
<path d="M143.82 109.46C143.788 110.042 143.621 110.608 143.331 111.113C143.041 111.619 142.636 112.049 142.15 112.37C141.22 112.9 140.47 112.47 140.47 111.37C140.502 110.787 140.671 110.22 140.963 109.715C141.255 109.209 141.661 108.779 142.15 108.46C143.07 108 143.82 108.39 143.82 109.46Z" fill="#263238"/>
<path d="M150.07 105.86C150.036 106.442 149.867 107.009 149.575 107.514C149.283 108.02 148.878 108.45 148.39 108.77C147.46 109.3 146.71 108.87 146.71 107.77C146.742 107.187 146.911 106.62 147.203 106.115C147.495 105.609 147.901 105.179 148.39 104.86C149.31 104.36 150.07 104.79 150.07 105.86Z" fill="#263238"/>
<path d="M175.26 93.25L155 105C154.19 105.46 153.54 105 153.54 103.9C153.548 103.355 153.685 102.819 153.939 102.336C154.192 101.853 154.556 101.437 155 101.12L175.29 89.41C176.09 88.94 176.74 89.41 176.74 90.5C176.724 91.0418 176.582 91.5724 176.325 92.0498C176.068 92.5271 175.703 92.938 175.26 93.25V93.25Z" fill="#263238"/>
<path d="M171.83 315.68C173.04 315.68 173.83 316.97 173.83 318.96C173.83 322.08 171.88 325.85 169.56 327.19L159.85 332.8C159.416 333.07 158.921 333.225 158.41 333.25C157.2 333.25 156.41 331.96 156.41 329.97C156.41 326.84 158.41 323.07 160.68 321.74L170.39 316.13C170.827 315.858 171.326 315.703 171.84 315.68H171.83ZM171.84 314.85C171.18 314.87 170.538 315.067 169.98 315.42L160.27 321.02C157.68 322.51 155.58 326.52 155.58 330.02C155.58 332.59 156.75 334.13 158.41 334.13C159.07 334.11 159.712 333.913 160.27 333.56L169.98 327.96C172.56 326.47 174.66 322.46 174.66 318.96C174.66 316.39 173.5 314.85 171.84 314.85V314.85Z" fill="#263238"/>
<path d="M118.19 163.71V378.71C118.19 382.61 119.62 385.22 121.8 386.08H121.86L131.16 391.17L131.1 382.91L130.1 159.98L120.29 154.98C118.974 157.706 118.257 160.683 118.19 163.71V163.71Z" fill="#E6E6E6"/>
<path d="M131.67 392L121.61 386.49C119.12 385.49 117.69 382.56 117.69 378.66V163.66C117.743 160.542 118.47 157.471 119.82 154.66L120.04 154.19L130.58 159.58V159.88L131.58 382.81L131.67 392ZM122.12 385.63L130.66 390.31V382.89L129.66 160.26L120.59 155.62C119.443 158.155 118.823 160.898 118.77 163.68V378.68C118.77 382.2 120 384.78 122.07 385.59L122.19 385.65L122.12 385.63Z" fill="#E6E6E6"/>
<path d="M120.27 155L130.08 160L235.08 98.91L242.08 94.83L232.39 89.37L232.12 89.21C230.57 88.28 228.55 88.34 226.32 89.63L126.94 147C123.972 148.945 121.65 151.73 120.27 155V155Z" fill="#E0E0E0"/>
<path d="M130.08 160.49C130 160.489 129.921 160.469 129.85 160.43L120.04 155.43C119.982 155.402 119.931 155.363 119.889 155.316C119.846 155.268 119.814 155.212 119.793 155.151C119.773 155.091 119.765 155.027 119.769 154.963C119.774 154.899 119.791 154.837 119.82 154.78C121.249 151.428 123.64 148.574 126.69 146.58L226.09 89.19C228.39 87.87 230.63 87.72 232.39 88.78H232.47L232.67 88.9L242.35 94.35C242.426 94.396 242.488 94.4605 242.532 94.5375C242.576 94.6145 242.599 94.7014 242.6 94.79C242.602 94.8777 242.579 94.9641 242.535 95.0399C242.491 95.1157 242.427 95.178 242.35 95.22L130.35 160.39C130.271 160.448 130.178 160.483 130.08 160.49V160.49ZM120.93 154.74L130.07 159.42L241.07 94.83L231.86 89.63L231.79 89.57C230.36 88.75 228.51 88.92 226.57 90.04L127.17 147.43C124.438 149.225 122.274 151.76 120.93 154.74V154.74Z" fill="#E0E0E0"/>
<path d="M127.81 169.11V383.11C127.81 386.48 128.89 388.9 130.6 390.04L131.17 390.35C132.66 391.05 134.53 390.9 136.56 389.72L184.61 362L236 331.1C238.632 329.454 240.811 327.177 242.341 324.475C243.87 321.774 244.702 318.734 244.76 315.63V101.63C244.76 98.37 243.76 96.01 242.14 94.82C241.867 94.615 241.567 94.4469 241.25 94.32C240.383 94.0134 239.456 93.9152 238.544 94.0333C237.632 94.1515 236.76 94.4826 236 95L136.6 153.36C133.796 154.828 131.527 157.145 130.12 159.98C128.677 162.812 127.888 165.932 127.81 169.11V169.11Z" fill="#FAFAFA"/>
<path d="M236 331.1C215.55 343.3 162.34 375.05 136 390.92C135.214 391.39 134.318 391.644 133.402 391.655C132.486 391.666 131.584 391.434 130.787 390.982C129.991 390.531 129.328 389.877 128.866 389.086C128.404 388.295 128.161 387.396 128.16 386.48V166.42C128.16 163.915 128.815 161.453 130.061 159.28C131.306 157.106 133.099 155.296 135.26 154.03L236.44 94.71C237.226 94.2514 238.119 94.0081 239.029 94.0044C239.939 94.0007 240.834 94.2368 241.624 94.689C242.413 95.1412 243.07 95.7934 243.528 96.58C243.985 97.3667 244.227 98.26 244.23 99.17V316.53C244.231 319.462 243.474 322.345 242.032 324.898C240.59 327.451 238.512 329.587 236 331.1Z" fill="#FAFAFA"/>
<path d="M235.71 330.66C219.65 340.22 203.597 349.807 187.55 359.42L159.05 376.47L146.05 384.27L140.36 387.69C138.61 388.74 136.75 390.24 134.81 390.91C131.6 392.03 128.71 389.46 128.63 386.29C128.63 385.78 128.63 385.29 128.63 384.76V183C128.63 177.63 128.63 172.25 128.63 166.88C128.593 164.338 129.236 161.831 130.491 159.62C131.746 157.408 133.568 155.572 135.77 154.3C138.09 152.93 140.42 151.58 142.77 150.22L175.43 131L214.18 108.29C221.53 103.99 228.86 99.65 236.18 95.37C238.46 94.05 241.33 94.18 242.92 96.57C243.482 97.5241 243.747 98.6245 243.68 99.73V315.69C243.78 318.672 243.094 321.629 241.69 324.262C240.285 326.895 238.213 329.112 235.68 330.69C235.13 331.03 235.63 331.9 236.18 331.56C238.844 329.911 241.031 327.595 242.525 324.841C244.019 322.088 244.769 318.992 244.7 315.86V115.11C244.7 109.89 244.75 104.66 244.7 99.43C244.726 98.383 244.466 97.3488 243.948 96.4382C243.431 95.5276 242.675 94.7751 241.763 94.2612C240.85 93.7474 239.815 93.4916 238.768 93.5213C237.721 93.5511 236.702 93.8652 235.82 94.43C233.38 95.84 230.96 97.28 228.54 98.7L195 118.43L155.9 141.35C149 145.4 142 149.42 135.13 153.5C132.817 154.861 130.905 156.808 129.586 159.146C128.267 161.483 127.589 164.127 127.62 166.81C127.62 168.61 127.62 170.41 127.62 172.21V385.44C127.62 385.78 127.62 386.13 127.62 386.44C127.631 387.334 127.85 388.214 128.261 389.008C128.672 389.802 129.263 390.49 129.987 391.015C130.71 391.541 131.547 391.89 132.43 392.035C133.312 392.18 134.216 392.117 135.07 391.85C136.96 391.22 138.74 389.8 140.44 388.78L146.24 385.29L159.24 377.51C178.147 366.177 197.07 354.863 216.01 343.57L236.24 331.5C236.76 331.2 236.26 330.33 235.71 330.66Z" fill="#EBEBEB"/>
<path d="M135.22 154L236.44 94.71C237.226 94.2514 238.119 94.0081 239.029 94.0044C239.939 94.0007 240.834 94.2368 241.624 94.689C242.413 95.1412 243.07 95.7934 243.528 96.58C243.985 97.3667 244.227 98.26 244.23 99.17V108.72L128.15 175.72V166.4C128.145 163.896 128.795 161.434 130.035 159.259C131.275 157.084 133.063 155.271 135.22 154Z" fill="#EBEBEB"/>
<path d="M204.761 206.057C215.025 188.279 215.025 169.063 204.761 163.137C194.497 157.211 177.855 166.819 167.591 184.597C157.327 202.375 157.327 221.591 167.591 227.517C177.855 233.443 194.496 223.835 204.761 206.057Z" fill="#FAB700"/>
<path opacity="0.5" d="M204.761 206.057C215.025 188.279 215.025 169.063 204.761 163.137C194.497 157.211 177.855 166.819 167.591 184.597C157.327 202.375 157.327 221.591 167.591 227.517C177.855 233.443 194.496 223.835 204.761 206.057Z" fill="white"/>
<path d="M181.46 195.44C181.305 195.44 181.152 195.409 181.008 195.35C180.865 195.291 180.735 195.204 180.626 195.094C180.516 194.985 180.429 194.855 180.37 194.712C180.311 194.568 180.28 194.415 180.28 194.26V186.49C180.366 184.647 180.893 182.85 181.815 181.252C182.737 179.653 184.028 178.298 185.58 177.3C186.208 176.782 186.98 176.469 187.791 176.401C188.603 176.333 189.415 176.515 190.121 176.921C190.826 177.328 191.391 177.94 191.739 178.676C192.088 179.412 192.203 180.237 192.07 181.04V188.82C192.07 189.133 191.946 189.433 191.724 189.654C191.503 189.876 191.203 190 190.89 190C190.577 190 190.277 189.876 190.056 189.654C189.834 189.433 189.71 189.133 189.71 188.82V181C189.866 180.609 189.875 180.175 189.736 179.778C189.597 179.381 189.318 179.048 188.952 178.84C188.586 178.633 188.157 178.565 187.745 178.65C187.333 178.734 186.965 178.965 186.71 179.3C185.52 180.095 184.529 181.154 183.815 182.394C183.1 183.634 182.681 185.022 182.59 186.45V194.22C182.601 194.531 182.488 194.834 182.276 195.063C182.065 195.291 181.771 195.427 181.46 195.44V195.44Z" fill="#323232"/>
<path d="M195.7 183.81C195.424 183.695 195.123 183.653 194.826 183.686C194.528 183.719 194.244 183.827 194 184L178.28 193.08C177.59 193.513 177.02 194.111 176.62 194.82C175.991 195.841 175.646 197.011 175.62 198.21V211.82C175.585 212.202 175.637 212.586 175.772 212.945C175.907 213.303 176.122 213.627 176.4 213.89C176.485 213.957 176.579 214.01 176.68 214.05V214.05C176.946 214.149 177.232 214.183 177.514 214.148C177.796 214.113 178.066 214.011 178.3 213.85L194 204.76C194.819 204.176 195.489 203.407 195.956 202.516C196.424 201.625 196.675 200.636 196.69 199.63V186C196.745 185.579 196.682 185.151 196.507 184.764C196.332 184.377 196.053 184.047 195.7 183.81V183.81Z" fill="white"/>
<path d="M188 198L189.52 202.36L184.19 205.43L185.52 200.05L185.71 199.29C184.81 199.29 184.19 198.62 184.19 197.4C184.197 196.903 184.281 196.411 184.44 195.94C184.855 194.64 185.707 193.524 186.85 192.78C188.32 191.93 189.52 192.62 189.52 194.32C189.447 195.684 188.911 196.982 188 198V198Z" fill="black"/>
<path d="M185.48 200L185.67 199.24C184.77 199.24 184.15 198.57 184.15 197.35C184.157 196.853 184.241 196.361 184.4 195.89L188 198L189.52 202.36L185.48 200Z" fill="#1E1E1E"/>
<path d="M225 245.66L147.4 290.43C144.19 292.28 141.59 290.31 141.59 286.04V274.29C141.59 270.01 144.19 265.04 147.4 263.19L225 218.42C228.21 216.57 230.81 218.53 230.81 222.81V234.56C230.76 238.84 228.16 243.8 225 245.66Z" fill="#FAB700"/>
<path d="M161.35 262.13H159.85V274.56H161.35V262.13Z" fill="#FAFAFA"/>
<path d="M166.263 265.682L155.449 271.897L156.199 273.202L167.013 266.987L166.263 265.682Z" fill="#FAFAFA"/>
<path d="M157.162 265.512L156.412 266.811L164.025 271.206L164.775 269.907L157.162 265.512Z" fill="#FAFAFA"/>
<path d="M164.822 260.689L157.207 273.939L158.512 274.689L166.127 261.439L164.822 260.689Z" fill="#FAFAFA"/>
<path d="M186.92 248.21H185.42V260.64H186.92V248.21Z" fill="#FAFAFA"/>
<path d="M191.17 250.69L180.405 256.905L181.155 258.204L191.92 251.989L191.17 250.69Z" fill="#FAFAFA"/>
<path d="M182.742 251.587L181.992 252.887L189.605 257.282L190.355 255.983L182.742 251.587Z" fill="#FAFAFA"/>
<path d="M190.338 246.658L182.723 259.908L184.028 260.658L191.643 247.408L190.338 246.658Z" fill="#FAFAFA"/>
<path d="M212.49 234.28H210.99V246.71H212.49V234.28Z" fill="#FAFAFA"/>
<path d="M217.61 237.712L206.796 243.927L207.546 245.232L218.36 239.017L217.61 237.712Z" fill="#FAFAFA"/>
<path d="M208.314 237.658L207.564 238.957L215.176 243.352L215.926 242.053L208.314 237.658Z" fill="#FAFAFA"/>
<path d="M214.9 233.514L207.285 246.703L208.584 247.453L216.199 234.264L214.9 233.514Z" fill="#FAFAFA"/>
<path d="M227.25 261.84C228.25 261.84 228.76 263.39 228.76 264.93V276.68C228.76 280.25 226.55 284.54 223.95 286.05L146.4 330.82C146.006 331.071 145.556 331.219 145.09 331.25C144.09 331.25 143.59 329.7 143.59 328.16V316.41C143.59 312.84 145.79 308.55 148.4 307.04L226 262.27C226.39 262.019 226.837 261.871 227.3 261.84H227.25ZM227.3 259.84C226.486 259.87 225.693 260.111 225 260.54L147.4 305.31C144.19 307.16 141.59 312.13 141.59 316.41V328.16C141.59 331.34 143.03 333.25 145.09 333.25C145.908 333.222 146.704 332.98 147.4 332.55L225 287.78C228.21 285.93 230.81 280.96 230.81 276.68V264.93C230.81 261.75 229.36 259.84 227.3 259.84V259.84Z" fill="#FAB700"/>
<path d="M341.39 128.31C341.436 129.101 341.669 129.87 342.071 130.554C342.473 131.237 343.031 131.815 343.7 132.24C344.98 132.96 346.01 132.37 346.01 130.93C345.964 130.139 345.731 129.37 345.329 128.686C344.927 128.003 344.369 127.425 343.7 127C342.43 126.28 341.39 126.86 341.39 128.31Z" fill="#455A64"/>
<path d="M310.42 137.62C308.387 137.552 306.406 136.96 304.67 135.9L297.34 131.75C297.279 131.72 297.225 131.678 297.181 131.626C297.137 131.574 297.104 131.514 297.083 131.449C297.063 131.384 297.057 131.316 297.064 131.248C297.071 131.181 297.092 131.115 297.125 131.056C297.159 130.997 297.204 130.945 297.258 130.904C297.312 130.863 297.374 130.833 297.44 130.816C297.506 130.8 297.574 130.797 297.641 130.808C297.709 130.819 297.773 130.843 297.83 130.88L305.16 135.03C308.33 136.82 311.26 137.11 313.43 135.85C315.6 134.59 316.73 132 316.73 128.49C316.73 124.62 318.08 121.7 320.52 120.27C322.96 118.84 326.31 119.11 329.79 121.08L341.64 127.79C341.753 127.857 341.836 127.965 341.872 128.092C341.907 128.219 341.892 128.354 341.83 128.47C341.765 128.585 341.657 128.67 341.529 128.706C341.402 128.741 341.265 128.725 341.15 128.66L329.3 122C326.14 120.21 323.2 119.92 321.03 121.19C318.86 122.46 317.73 125.04 317.73 128.54C317.73 132.42 316.38 135.34 313.94 136.76C312.864 137.354 311.649 137.651 310.42 137.62Z" fill="#455A64"/>
<path d="M294.31 129.51C294.345 130.149 294.533 130.771 294.859 131.323C295.184 131.874 295.637 132.34 296.18 132.68C297.18 133.27 298.05 132.79 298.05 131.62C298.015 130.98 297.827 130.359 297.501 129.807C297.176 129.256 296.723 128.79 296.18 128.45C295.15 127.86 294.31 128.34 294.31 129.51Z" fill="#455A64"/>
<path d="M412.59 118.88L363.59 91.14C363.075 90.7622 362.453 90.5585 361.815 90.5585C361.177 90.5585 360.555 90.7622 360.04 91.14L355.8 94.06L358.69 97.63V149.26C358.69 152.87 360.89 157.06 363.59 158.63L411.36 185.63L411.58 189.47L416.04 186.41C416.554 185.931 416.951 185.34 417.201 184.683C417.451 184.025 417.546 183.32 417.48 182.62V128.25C417.5 124.64 415.3 120.45 412.59 118.88Z" fill="#BA68C8"/>
<path opacity="0.3" d="M412.59 118.88L363.59 91.14C363.075 90.7622 362.453 90.5585 361.815 90.5585C361.177 90.5585 360.555 90.7622 360.04 91.14L355.8 94.06L358.69 97.63V149.26C358.69 152.87 360.89 157.06 363.59 158.63L411.36 185.63L411.58 189.47L416.04 186.41C416.554 185.931 416.951 185.34 417.201 184.683C417.451 184.025 417.546 183.32 417.48 182.62V128.25C417.5 124.64 415.3 120.45 412.59 118.88Z" fill="black"/>
<path d="M408.43 189.23L359.43 161.49C356.72 159.93 354.53 155.73 354.53 152.12V97.72C354.53 94.1 356.72 92.44 359.43 94.01L408.43 121.75C411.14 123.31 413.33 127.51 413.33 131.12V185.53C413.33 189.14 411.14 190.8 408.43 189.23Z" fill="#FAB700"/>
<path d="M398.14 142.15C398.029 142.152 397.92 142.116 397.832 142.049C397.743 141.982 397.679 141.887 397.65 141.78C396.606 137.922 394.991 134.241 392.86 130.86C392.789 130.749 392.764 130.613 392.792 130.484C392.821 130.355 392.899 130.242 393.01 130.17C393.065 130.134 393.128 130.109 393.193 130.097C393.258 130.086 393.325 130.088 393.389 130.103C393.454 130.117 393.514 130.145 393.568 130.184C393.621 130.224 393.666 130.273 393.7 130.33C395.888 133.794 397.547 137.566 398.62 141.52C398.651 141.648 398.633 141.784 398.568 141.899C398.503 142.014 398.396 142.101 398.27 142.14L398.14 142.15Z" fill="white"/>
<path d="M399.26 152.32C399.126 152.31 399.002 152.247 398.914 152.146C398.826 152.045 398.782 151.914 398.79 151.78C398.79 151.25 398.85 150.69 398.85 150.12C398.845 148.41 398.694 146.704 398.4 145.02C398.377 144.887 398.409 144.751 398.486 144.642C398.564 144.532 398.682 144.458 398.815 144.435C398.948 144.412 399.084 144.443 399.193 144.521C399.303 144.599 399.377 144.717 399.4 144.85C399.706 146.59 399.863 148.353 399.87 150.12C399.87 150.71 399.87 151.29 399.81 151.85C399.805 151.917 399.787 151.982 399.756 152.042C399.726 152.102 399.684 152.156 399.633 152.199C399.582 152.243 399.522 152.276 399.458 152.297C399.394 152.318 399.327 152.325 399.26 152.32V152.32Z" fill="white"/>
<path d="M368.67 135.72C368.547 135.72 368.428 135.674 368.337 135.591C368.246 135.507 368.19 135.393 368.18 135.27C368.1 134.4 368.06 133.53 368.06 132.69C368.06 127.84 369.37 123.84 371.75 121.41C371.796 121.363 371.85 121.326 371.91 121.301C371.97 121.276 372.035 121.263 372.1 121.263C372.165 121.263 372.23 121.276 372.29 121.301C372.35 121.326 372.404 121.363 372.45 121.41C372.497 121.456 372.534 121.512 372.559 121.573C372.585 121.634 372.598 121.699 372.598 121.765C372.598 121.831 372.585 121.896 372.559 121.957C372.534 122.018 372.497 122.073 372.45 122.12C370.26 124.36 369.05 128.12 369.05 132.7C369.05 133.51 369.05 134.35 369.16 135.19C369.167 135.255 369.161 135.321 369.142 135.384C369.123 135.446 369.091 135.505 369.049 135.555C369.007 135.605 368.956 135.647 368.897 135.677C368.839 135.707 368.775 135.725 368.71 135.73L368.67 135.72Z" fill="white"/>
<path d="M390.79 127.63C390.716 127.631 390.642 127.615 390.575 127.584C390.507 127.553 390.448 127.507 390.4 127.45C388.547 125.091 386.272 123.097 383.69 121.57C380.37 119.69 377.25 119.33 374.69 120.57C374.571 120.625 374.434 120.63 374.311 120.585C374.187 120.54 374.086 120.449 374.03 120.33C374.001 120.27 373.985 120.206 373.981 120.139C373.978 120.073 373.988 120.007 374.01 119.945C374.032 119.882 374.067 119.825 374.111 119.776C374.156 119.727 374.21 119.688 374.27 119.66C377.15 118.33 380.58 118.66 384.2 120.75C386.89 122.342 389.263 124.416 391.2 126.87C391.283 126.972 391.322 127.103 391.309 127.234C391.296 127.365 391.232 127.486 391.13 127.57C391.027 127.63 390.907 127.651 390.79 127.63V127.63Z" fill="white"/>
<path d="M372.12 136.11C371.991 136.11 371.867 136.06 371.773 135.971C371.68 135.881 371.625 135.759 371.62 135.63C371.62 135.32 371.62 135.01 371.62 134.7C371.62 131.15 372.49 128.25 374.14 126.32C374.182 126.269 374.233 126.227 374.291 126.197C374.349 126.166 374.412 126.148 374.477 126.142C374.543 126.137 374.608 126.144 374.671 126.164C374.733 126.185 374.79 126.217 374.84 126.26C374.941 126.347 375.003 126.47 375.015 126.603C375.026 126.735 374.985 126.867 374.9 126.97C373.41 128.72 372.62 131.39 372.62 134.7C372.62 134.99 372.62 135.29 372.62 135.58C372.623 135.646 372.612 135.711 372.59 135.773C372.567 135.835 372.532 135.891 372.488 135.94C372.443 135.988 372.39 136.027 372.33 136.054C372.27 136.082 372.206 136.097 372.14 136.1L372.12 136.11Z" fill="white"/>
<path d="M376 125.81C375.89 125.811 375.783 125.776 375.695 125.71C375.607 125.644 375.543 125.551 375.514 125.445C375.484 125.339 375.49 125.226 375.531 125.124C375.572 125.022 375.645 124.936 375.74 124.88C377.021 124.118 378.522 123.808 380 124C380.131 124.013 380.252 124.076 380.336 124.178C380.42 124.279 380.461 124.409 380.45 124.54C380.435 124.672 380.369 124.793 380.266 124.877C380.164 124.961 380.032 125.001 379.9 124.99C378.64 124.84 377.366 125.114 376.28 125.77C376.192 125.807 376.095 125.821 376 125.81V125.81Z" fill="white"/>
<path d="M398.14 158.75C398.04 158.75 397.942 158.721 397.858 158.666C397.775 158.611 397.709 158.532 397.67 158.44L397.09 156.99C395.928 154.186 395.313 151.185 395.28 148.15C395.28 139.67 390.08 129.86 383.69 126.24C383.633 126.208 383.583 126.165 383.542 126.113C383.502 126.061 383.473 126.001 383.456 125.938C383.439 125.875 383.435 125.809 383.445 125.744C383.454 125.679 383.476 125.616 383.51 125.56C383.541 125.502 383.584 125.451 383.635 125.41C383.687 125.368 383.746 125.338 383.81 125.32C383.873 125.303 383.939 125.298 384.005 125.306C384.07 125.315 384.133 125.337 384.19 125.37C390.85 129.15 396.28 139.37 396.28 148.11C396.305 151.029 396.896 153.916 398.02 156.61L398.6 158.06C398.626 158.12 398.64 158.185 398.64 158.251C398.641 158.316 398.628 158.382 398.603 158.442C398.577 158.503 398.54 158.558 398.493 158.604C398.447 158.65 398.391 158.686 398.33 158.71C398.27 158.737 398.205 158.75 398.14 158.75Z" fill="white"/>
<path d="M375.18 153C375.077 153 374.977 152.968 374.893 152.909C374.809 152.85 374.745 152.767 374.71 152.67C373.095 147.945 372.051 143.043 371.6 138.07C371.595 138.004 371.602 137.937 371.623 137.873C371.644 137.81 371.677 137.751 371.721 137.701C371.765 137.651 371.818 137.61 371.878 137.58C371.938 137.551 372.003 137.534 372.07 137.53C372.201 137.527 372.329 137.574 372.427 137.661C372.526 137.748 372.587 137.869 372.6 138C373.026 142.879 374.033 147.69 375.6 152.33C375.624 152.392 375.635 152.457 375.632 152.523C375.63 152.589 375.614 152.654 375.586 152.714C375.558 152.774 375.519 152.827 375.469 152.871C375.42 152.915 375.362 152.949 375.3 152.97C375.261 152.985 375.221 152.995 375.18 153V153Z" fill="white"/>
<path d="M395.2 162.12C395.098 162.122 394.998 162.092 394.914 162.035C394.83 161.978 394.765 161.896 394.73 161.8L393.39 158.2C392.039 154.686 391.311 150.964 391.24 147.2V143.27C391.24 138.6 387.89 132.91 383.77 130.58C381.85 129.49 380.07 129.3 378.77 130.06C377.47 130.82 376.77 132.39 376.77 134.52V138C376.88 143.653 378.011 149.24 380.11 154.49L381.76 158.79C381.784 158.852 381.796 158.918 381.794 158.984C381.793 159.05 381.778 159.115 381.751 159.176C381.724 159.236 381.685 159.291 381.637 159.336C381.589 159.381 381.532 159.417 381.47 159.44C381.347 159.486 381.21 159.481 381.09 159.426C380.971 159.372 380.877 159.273 380.83 159.15L379.18 154.85C377.049 149.482 375.904 143.774 375.8 138V134.53C375.8 132.03 376.67 130.14 378.27 129.21C379.87 128.28 382.02 128.45 384.27 129.72C388.66 132.21 392.27 138.29 392.27 143.28V147.21C392.339 150.855 393.046 154.459 394.36 157.86L395.69 161.45C395.714 161.511 395.725 161.576 395.724 161.642C395.722 161.707 395.707 161.772 395.68 161.831C395.653 161.891 395.614 161.945 395.566 161.989C395.518 162.033 395.462 162.068 395.4 162.09L395.2 162.12Z" fill="white"/>
<path d="M390.79 163.55C390.683 163.551 390.579 163.517 390.492 163.454C390.406 163.391 390.342 163.302 390.31 163.2L389.61 160.84C388.335 156.698 387.661 152.394 387.61 148.06V142C387.532 140.627 387.129 139.293 386.434 138.107C385.738 136.921 384.77 135.918 383.61 135.18C383.248 134.915 382.823 134.75 382.377 134.7C381.932 134.651 381.481 134.72 381.07 134.9C380.719 135.155 380.441 135.498 380.266 135.895C380.09 136.292 380.022 136.729 380.07 137.16C380.07 143.92 382.13 151.71 385.86 159.1L387.27 161.89C387.3 161.949 387.317 162.013 387.322 162.079C387.327 162.145 387.318 162.211 387.297 162.274C387.276 162.337 387.243 162.395 387.2 162.445C387.157 162.495 387.104 162.535 387.045 162.565C386.986 162.595 386.922 162.612 386.856 162.617C386.79 162.622 386.724 162.613 386.661 162.592C386.598 162.571 386.54 162.538 386.49 162.495C386.44 162.452 386.4 162.399 386.37 162.34L384.97 159.55C381.16 152.02 379.07 144.07 379.07 137.16C379.014 136.554 379.121 135.943 379.382 135.392C379.642 134.842 380.046 134.371 380.55 134.03C381.11 133.76 381.733 133.643 382.353 133.692C382.973 133.741 383.569 133.955 384.08 134.31C385.391 135.14 386.486 136.271 387.273 137.608C388.061 138.945 388.519 140.451 388.61 142V148.08C388.655 152.319 389.312 156.529 390.56 160.58L391.26 162.93C391.28 162.993 391.287 163.059 391.28 163.125C391.274 163.191 391.254 163.255 391.222 163.312C391.19 163.37 391.147 163.421 391.095 163.462C391.043 163.503 390.984 163.533 390.92 163.55C390.877 163.558 390.833 163.558 390.79 163.55Z" fill="white"/>
<path d="M385.18 153C385.067 152.999 384.957 152.96 384.868 152.889C384.779 152.818 384.717 152.72 384.69 152.61L384.23 150.47C383.79 148.412 383.569 146.314 383.57 144.21V138.58C383.57 138.447 383.623 138.32 383.716 138.226C383.81 138.133 383.937 138.08 384.07 138.08C384.203 138.08 384.33 138.133 384.424 138.226C384.517 138.32 384.57 138.447 384.57 138.58V144.21C384.576 146.227 384.79 148.237 385.21 150.21L385.67 152.35C385.685 152.414 385.686 152.48 385.675 152.544C385.664 152.609 385.64 152.67 385.604 152.725C385.569 152.78 385.523 152.827 385.469 152.864C385.415 152.901 385.354 152.927 385.29 152.94L385.18 153Z" fill="white"/>
<path d="M369.76 142.15C369.636 142.148 369.517 142.102 369.425 142.019C369.333 141.936 369.275 141.823 369.26 141.7L368.97 138.78C368.959 138.648 368.999 138.516 369.083 138.414C369.167 138.311 369.288 138.245 369.42 138.23C369.486 138.222 369.553 138.227 369.617 138.245C369.681 138.264 369.74 138.295 369.792 138.337C369.843 138.379 369.885 138.431 369.916 138.49C369.947 138.549 369.965 138.614 369.97 138.68L370.26 141.6C370.267 141.666 370.261 141.732 370.242 141.795C370.223 141.859 370.192 141.918 370.15 141.969C370.108 142.02 370.056 142.062 369.998 142.093C369.94 142.125 369.876 142.144 369.81 142.15H369.76Z" fill="white"/>
<path d="M412.59 211.54L363.59 183.79C363.075 183.412 362.453 183.209 361.815 183.209C361.177 183.209 360.555 183.412 360.04 183.79L355.8 186.71L358.69 190.28V241.91C358.69 245.52 360.89 249.71 363.59 251.28L411.36 278.28L411.58 282.12L416.04 279.07C416.554 278.589 416.952 277.996 417.201 277.337C417.451 276.679 417.546 275.971 417.48 275.27V220.87C417.5 217.29 415.3 213.1 412.59 211.54Z" fill="#BA68C8"/>
<path opacity="0.3" d="M412.59 211.54L363.59 183.79C363.075 183.412 362.453 183.209 361.815 183.209C361.177 183.209 360.555 183.412 360.04 183.79L355.8 186.71L358.69 190.28V241.91C358.69 245.52 360.89 249.71 363.59 251.28L411.36 278.28L411.58 282.12L416.04 279.07C416.554 278.589 416.952 277.996 417.201 277.337C417.451 276.679 417.546 275.971 417.48 275.27V220.87C417.5 217.29 415.3 213.1 412.59 211.54Z" fill="black"/>
<path d="M408.43 281.88L359.43 254.14C356.72 252.58 354.53 248.39 354.53 244.77V190.37C354.53 186.76 356.72 185.1 359.43 186.66L408.43 214.4C411.14 215.97 413.33 220.16 413.33 223.77V278.18C413.33 281.79 411.14 283.45 408.43 281.88Z" fill="#FAB700"/>
<path d="M365.45 205.55C365.317 205.55 365.19 205.497 365.096 205.404C365.003 205.31 364.95 205.183 364.95 205.05V201.68C364.947 201.345 365.034 201.016 365.201 200.726C365.368 200.436 365.609 200.196 365.9 200.03C366.202 199.848 366.548 199.752 366.9 199.752C367.252 199.752 367.598 199.848 367.9 200.03L371.43 202.03C371.547 202.095 371.633 202.204 371.669 202.332C371.706 202.461 371.69 202.598 371.625 202.715C371.56 202.832 371.451 202.918 371.323 202.954C371.194 202.991 371.057 202.975 370.94 202.91L367.4 200.91C367.248 200.822 367.076 200.776 366.9 200.776C366.724 200.776 366.552 200.822 366.4 200.91C366.262 200.987 366.147 201.101 366.068 201.238C365.988 201.375 365.948 201.532 365.95 201.69V205.06C365.947 205.191 365.894 205.315 365.8 205.407C365.707 205.499 365.581 205.55 365.45 205.55V205.55Z" fill="white"/>
<path d="M371.13 251.92C371.046 251.919 370.964 251.899 370.89 251.86L367.59 249.99C366.801 249.536 366.146 248.881 365.692 248.093C365.237 247.305 364.998 246.41 365 245.5V242.39C365 242.257 365.053 242.13 365.146 242.036C365.24 241.943 365.367 241.89 365.5 241.89C365.633 241.89 365.76 241.943 365.854 242.036C365.947 242.13 366 242.257 366 242.39V245.5C366.003 246.238 366.202 246.962 366.576 247.598C366.95 248.234 367.486 248.759 368.13 249.12L371.43 250.99C371.524 251.046 371.597 251.131 371.638 251.232C371.679 251.333 371.686 251.444 371.658 251.55C371.629 251.655 371.567 251.748 371.481 251.815C371.395 251.882 371.289 251.919 371.18 251.92H371.13Z" fill="white"/>
<path d="M401 268.63C400.649 268.637 400.303 268.547 400 268.37L396.47 266.37C396.355 266.305 396.27 266.197 396.234 266.069C396.199 265.942 396.215 265.805 396.28 265.69C396.347 265.577 396.455 265.494 396.582 265.458C396.709 265.423 396.844 265.438 396.96 265.5L400.5 267.5C400.652 267.588 400.824 267.634 401 267.634C401.176 267.634 401.348 267.588 401.5 267.5C401.638 267.423 401.753 267.309 401.832 267.172C401.912 267.035 401.952 266.878 401.95 266.72V263.35C401.95 263.217 402.003 263.09 402.096 262.996C402.19 262.903 402.317 262.85 402.45 262.85C402.583 262.85 402.71 262.903 402.804 262.996C402.897 263.09 402.95 263.217 402.95 263.35V266.72C402.952 267.053 402.865 267.381 402.698 267.669C402.531 267.958 402.29 268.196 402 268.36C401.698 268.539 401.352 268.633 401 268.63V268.63Z" fill="white"/>
<path d="M402.43 226.5C402.297 226.5 402.17 226.447 402.076 226.354C401.983 226.26 401.93 226.133 401.93 226V222.89C401.927 222.153 401.729 221.431 401.354 220.796C400.98 220.162 400.443 219.639 399.8 219.28L396.5 217.41C396.384 217.343 396.299 217.233 396.264 217.104C396.228 216.975 396.245 216.837 396.31 216.72C396.342 216.663 396.385 216.613 396.437 216.572C396.489 216.532 396.548 216.503 396.612 216.486C396.675 216.469 396.741 216.465 396.806 216.475C396.871 216.484 396.934 216.506 396.99 216.54L400.29 218.41C401.087 218.857 401.75 219.507 402.214 220.294C402.678 221.081 402.925 221.977 402.93 222.89V226C402.93 226.133 402.877 226.26 402.784 226.354C402.69 226.447 402.563 226.5 402.43 226.5Z" fill="white"/>
<path d="M369.88 222.37C369.991 228.048 370.804 233.691 372.3 239.17C376.1 253.51 391.09 262.32 395.21 252.61C397.146 247.833 398.095 242.713 398 237.56C398 228.76 391.7 218.06 383.94 213.66C376 209.17 369.77 213.34 369.88 222.37Z" fill="white"/>
<path d="M383.44 230.38V239.8L379.35 236.74L383.44 230.38Z" fill="#E0E0E0"/>
<path d="M375.83 224.75C375.857 225.212 375.992 225.661 376.225 226.06C376.458 226.46 376.781 226.799 377.17 227.05C377.92 227.47 378.52 227.13 378.52 226.28C378.494 225.818 378.358 225.37 378.123 224.971C377.888 224.573 377.561 224.236 377.17 223.99C376.43 223.57 375.83 223.91 375.83 224.75Z" fill="#E0E0E0"/>
<path d="M388.35 231.93C388.379 232.391 388.516 232.839 388.75 233.237C388.985 233.635 389.31 233.972 389.7 234.22C390.45 234.64 391.05 234.3 391.05 233.46C391.024 232.997 390.888 232.547 390.653 232.147C390.418 231.747 390.092 231.409 389.7 231.16C389 230.74 388.35 231.08 388.35 231.93Z" fill="#E0E0E0"/>
<path d="M382.09 244.41L386.66 243.64C386.66 243.64 385.69 248.52 382.09 244.41Z" fill="#E0E0E0"/>
<path d="M341.39 215.72C341.438 216.51 341.672 217.277 342.073 217.958C342.475 218.639 343.032 219.216 343.7 219.64C344.98 220.37 346.01 219.78 346.01 218.34C345.964 217.549 345.731 216.78 345.329 216.096C344.927 215.413 344.369 214.835 343.7 214.41C342.43 213.68 341.39 214.27 341.39 215.72Z" fill="#455A64"/>
<path d="M341.48 216.81C341.393 216.809 341.308 216.789 341.23 216.75L329.39 210C322.46 206.08 316.82 196.49 316.82 188.64C316.82 181.1 311.41 171.91 304.76 168.14L297.34 163.94C297.225 163.875 297.14 163.767 297.104 163.639C297.069 163.512 297.085 163.375 297.15 163.26C297.181 163.202 297.224 163.151 297.275 163.11C297.327 163.068 297.386 163.038 297.45 163.02C297.513 163.003 297.58 162.998 297.645 163.006C297.71 163.015 297.773 163.037 297.83 163.07L305.25 167.27C312.18 171.2 317.82 180.78 317.82 188.64C317.82 196.17 323.23 205.36 329.88 209.13L341.73 215.85C341.845 215.915 341.93 216.023 341.966 216.151C342.001 216.278 341.985 216.415 341.92 216.53C341.878 216.611 341.815 216.68 341.738 216.729C341.66 216.778 341.572 216.806 341.48 216.81V216.81Z" fill="#455A64"/>
<path d="M294.31 161.54C294.348 162.18 294.538 162.802 294.863 163.355C295.188 163.907 295.639 164.375 296.18 164.72C297.18 165.3 298.05 164.83 298.05 163.66C298.012 163.02 297.822 162.398 297.497 161.845C297.172 161.293 296.721 160.825 296.18 160.48C295.15 159.9 294.31 160.37 294.31 161.54Z" fill="#455A64"/>
<path d="M308.38 253.2C308.38 253.2 315.67 252.71 319.8 262.84C322.37 269.14 325.5 278.84 327.5 285.34C328.107 287.303 328.122 289.401 327.542 291.372C326.962 293.343 325.813 295.099 324.24 296.42L311.53 307.09L307 298.82C309.642 295.295 312.547 291.976 315.69 288.89L307 262.84L308.38 253.2Z" fill="#FFA8A7"/>
<path d="M311.74 284.14C311.74 284.14 323.32 285.67 326.21 276.74C326.21 276.74 321.21 263.67 318.97 259.33C316.73 254.99 312.05 251.83 308.38 253.2C304.71 254.57 311.74 284.14 311.74 284.14Z" fill="#BA68C8"/>
<path opacity="0.4" d="M311.74 284.14C311.74 284.14 323.32 285.67 326.21 276.74C326.21 276.74 321.21 263.67 318.97 259.33C316.73 254.99 312.05 251.83 308.38 253.2C304.71 254.57 311.74 284.14 311.74 284.14Z" fill="white"/>
<path d="M304 401.4C304 401.4 298.5 396.69 296.36 396.47C294.22 396.25 290.52 399.91 293.65 406.26C294.52 408.03 298.06 409.94 300.27 413.33C302.48 416.72 304.46 419.27 307.85 418.8C311.24 418.33 311.68 416.43 311.46 414.22C311.173 412.198 310.769 410.195 310.25 408.22L304 401.4Z" fill="#37474F"/>
<path d="M308 417.79C304.51 418.27 302.46 415.64 300.18 412.15C297.9 408.66 294.26 406.68 293.36 404.86C293 404.131 292.705 403.371 292.48 402.59C292.647 403.87 293.032 405.111 293.62 406.26C294.49 408.03 298.03 409.94 300.24 413.33C302.45 416.72 304.43 419.27 307.82 418.8C310.42 418.45 311.28 417.24 311.44 415.7C311 416.74 310.05 417.52 308 417.79Z" fill="#263238"/>
<path d="M301.08 407.46C300.992 407.462 300.905 407.437 300.83 407.39C300.768 407.357 300.713 407.313 300.669 407.259C300.624 407.205 300.59 407.143 300.57 407.076C300.549 407.009 300.543 406.939 300.549 406.869C300.556 406.799 300.577 406.732 300.61 406.67C301.729 404.687 303.588 403.227 305.78 402.61C305.915 402.589 306.052 402.621 306.165 402.697C306.278 402.774 306.357 402.891 306.388 403.024C306.418 403.156 306.397 403.296 306.329 403.414C306.261 403.532 306.15 403.62 306.02 403.66C304.134 404.211 302.532 405.468 301.55 407.17C301.505 407.256 301.438 407.329 301.355 407.38C301.272 407.431 301.177 407.458 301.08 407.46Z" fill="#EBEBEB"/>
<path d="M299 405.56C298.913 405.559 298.828 405.539 298.75 405.5C298.688 405.467 298.633 405.423 298.589 405.369C298.544 405.315 298.51 405.253 298.49 405.186C298.469 405.119 298.462 405.049 298.469 404.979C298.476 404.909 298.497 404.842 298.53 404.78C299.084 403.796 299.826 402.93 300.715 402.234C301.604 401.537 302.622 401.022 303.71 400.72C303.782 400.683 303.861 400.662 303.942 400.66C304.023 400.658 304.103 400.675 304.177 400.709C304.25 400.743 304.315 400.793 304.366 400.856C304.417 400.919 304.453 400.993 304.471 401.071C304.489 401.15 304.489 401.232 304.471 401.311C304.452 401.39 304.416 401.463 304.365 401.526C304.313 401.589 304.248 401.639 304.175 401.672C304.101 401.706 304.021 401.722 303.94 401.72C302.054 402.277 300.454 403.537 299.47 405.24C299.431 405.333 299.366 405.413 299.283 405.47C299.199 405.527 299.101 405.558 299 405.56V405.56Z" fill="#EBEBEB"/>
<path d="M296.67 403.67C296.583 403.669 296.498 403.649 296.42 403.61C296.294 403.542 296.2 403.427 296.159 403.29C296.118 403.154 296.133 403.006 296.2 402.88C297.323 400.898 299.186 399.442 301.38 398.83C301.448 398.814 301.519 398.811 301.588 398.823C301.658 398.834 301.724 398.859 301.784 398.896C301.843 398.933 301.895 398.982 301.935 399.039C301.976 399.097 302.005 399.161 302.02 399.23C302.05 399.369 302.023 399.514 301.947 399.634C301.87 399.754 301.749 399.839 301.61 399.87C299.724 400.427 298.124 401.687 297.14 403.39C297.095 403.476 297.028 403.547 296.945 403.597C296.862 403.646 296.767 403.672 296.67 403.67V403.67Z" fill="#EBEBEB"/>
<path d="M274.73 416.85C274.73 416.85 267.36 414.46 265.16 415.12C262.96 415.78 260.81 420.92 266.51 425.91C268.09 427.29 272.37 427.73 275.95 430.17C279.53 432.61 282.53 434.3 285.69 432.45C288.85 430.6 288.59 428.45 288.02 426.17C287.31 423.23 286.73 421.09 286.73 421.09L274.73 416.85Z" fill="#37474F"/>
<path d="M285.45 431.38C282.2 433.29 279.09 431.54 275.45 429.02C271.81 426.5 267.35 426.02 265.72 424.63C265.06 424.056 264.455 423.424 263.91 422.74C264.6 423.941 265.494 425.014 266.55 425.91C268.13 427.29 272.41 427.73 275.99 430.17C279.57 432.61 282.57 434.3 285.73 432.45C288.14 431.04 288.5 429.45 288.03 427.9C288 429.11 287.32 430.28 285.45 431.38Z" fill="#263238"/>
<path d="M273 423.66H272.95C272.808 423.645 272.678 423.574 272.588 423.464C272.499 423.353 272.456 423.212 272.47 423.07C272.76 420.662 273.994 418.468 275.9 416.97C275.956 416.929 276.02 416.9 276.088 416.884C276.156 416.868 276.226 416.866 276.295 416.877C276.364 416.888 276.429 416.912 276.489 416.949C276.548 416.986 276.599 417.034 276.64 417.09C276.723 417.206 276.757 417.349 276.734 417.49C276.712 417.63 276.635 417.756 276.52 417.84C274.872 419.169 273.798 421.081 273.52 423.18C273.508 423.31 273.448 423.431 273.352 423.519C273.256 423.608 273.131 423.658 273 423.66V423.66Z" fill="#EBEBEB"/>
<path d="M276 424.65C275.86 424.635 275.732 424.566 275.642 424.457C275.553 424.349 275.509 424.21 275.52 424.07C275.814 421.661 277.046 419.465 278.95 417.96C279.067 417.878 279.211 417.846 279.352 417.87C279.492 417.895 279.617 417.974 279.7 418.09C279.74 418.147 279.769 418.212 279.784 418.28C279.799 418.348 279.801 418.418 279.789 418.487C279.777 418.556 279.751 418.621 279.714 418.68C279.676 418.739 279.627 418.79 279.57 418.83C277.918 420.156 276.843 422.069 276.57 424.17C276.557 424.309 276.49 424.437 276.384 424.527C276.277 424.617 276.139 424.661 276 424.65V424.65Z" fill="#EBEBEB"/>
<path d="M270.16 422.63H270.11C269.97 422.615 269.842 422.546 269.752 422.437C269.663 422.329 269.619 422.19 269.63 422.05C269.918 419.639 271.152 417.442 273.06 415.94C273.175 415.858 273.319 415.825 273.458 415.848C273.598 415.872 273.723 415.95 273.805 416.065C273.887 416.18 273.92 416.324 273.897 416.463C273.873 416.603 273.795 416.728 273.68 416.81C272.028 418.136 270.953 420.049 270.68 422.15C270.668 422.28 270.608 422.401 270.512 422.489C270.416 422.578 270.291 422.628 270.16 422.63V422.63Z" fill="#EBEBEB"/>
<path d="M310.6 402.8C311.26 395.5 312.69 384.06 313.29 378.71C314.098 371.948 313.903 365.104 312.71 358.4C312.404 356.819 312.326 355.203 312.48 353.6C313.93 339.06 314.87 315.49 314.07 310.31L293.66 314.63C293.66 314.63 296.16 347.7 297.26 358.7C298.36 369.7 302.46 402.9 302.46 402.9C303.678 403.68 305.098 404.086 306.545 404.068C307.991 404.05 309.401 403.609 310.6 402.8V402.8Z" fill="#455A64"/>
<path d="M307.66 410.31C308.224 410.179 308.75 409.921 309.2 409.558C309.651 409.194 310.013 408.733 310.26 408.21C310.26 407.06 310.39 405.14 310.6 402.8C309.401 403.609 307.991 404.05 306.545 404.068C305.098 404.086 303.678 403.68 302.46 402.9L303.18 409.04C303.78 409.58 304.496 409.975 305.272 410.196C306.049 410.416 306.866 410.455 307.66 410.31V410.31Z" fill="#FFA8A7"/>
<path d="M287.64 415.64C288.47 404.58 290.08 383.17 290.29 379.8C290.447 376.082 290.212 372.359 289.59 368.69C289.229 366.706 289.229 364.674 289.59 362.69L298.59 312.91L273.92 312.55L272.31 364.7C272.292 365.368 272.319 366.036 272.39 366.7L277.62 415.31C277.62 415.31 282.72 419.6 287.64 415.64Z" fill="#455A64"/>
<path d="M283.52 424.76C284.287 424.671 285.02 424.393 285.652 423.949C286.284 423.505 286.796 422.911 287.14 422.22L287.64 415.64C282.72 419.64 277.64 415.33 277.64 415.33L278.42 422.61C278.42 422.61 279.56 425.13 283.52 424.76Z" fill="#FFA8A7"/>
<path d="M285.32 256.52L279.5 258.52L273.24 288.13L273.55 314.38C273.55 314.38 278.02 317.95 295.48 317.95C305.28 317.95 311.67 314.25 314.07 310.32L312.5 294.46C312.5 294.46 314.07 278.83 314.07 271.1C314.07 263.37 314.42 257.04 308.38 253.21L303 253.66L285.32 256.52Z" fill="#BA68C8"/>
<path opacity="0.2" d="M285.32 256.52L279.5 258.52L273.24 288.13L273.55 314.38C273.55 314.38 278.02 317.95 295.48 317.95C305.28 317.95 311.67 314.25 314.07 310.32L312.5 294.46C312.5 294.46 314.07 278.83 314.07 271.1C314.07 263.37 314.42 257.04 308.38 253.21L303 253.66L285.32 256.52Z" fill="white"/>
<path d="M279 231.07L276.09 236.84C276.048 236.924 276.024 237.015 276.021 237.109C276.018 237.203 276.035 237.296 276.071 237.382C276.107 237.469 276.161 237.546 276.23 237.61C276.299 237.673 276.381 237.721 276.47 237.75L279.92 238.91L279 231.07Z" fill="#F28F8F"/>
<path d="M283 221.4C283 221.4 278.58 223.78 278.58 237.4C278.58 244.91 279.1 249.7 283 249.4C286.9 249.1 298.14 247.63 298.14 247.63V221.4H283Z" fill="#FFA8A7"/>
<path d="M283 249.45C284.37 249.34 286.65 249.09 289 248.81V247.42C286.855 248.335 284.615 249.006 282.32 249.42C282.546 249.447 282.773 249.457 283 249.45V249.45Z" fill="#F28F8F"/>
<path d="M288.4 246.84V255.41H300.13V243.37L288.4 246.84Z" fill="#FFA8A7"/>
<path d="M288.4 252.15C288.4 252.15 292.62 253.65 296 253.06C299.38 252.47 300.13 250.41 300.13 250.41C300.13 250.41 301.23 250.32 303 253.65C302.311 254.894 301.325 255.949 300.13 256.72C298.935 257.491 297.568 257.955 296.15 258.07C292.472 258.306 288.785 257.778 285.32 256.52C285.32 256.52 287 251.72 288.4 252.15Z" fill="#BA68C8"/>
<path opacity="0.4" d="M288.4 252.15C288.4 252.15 292.62 253.65 296 253.06C299.38 252.47 300.13 250.41 300.13 250.41C300.13 250.41 301.23 250.32 303 253.65C302.311 254.894 301.325 255.949 300.13 256.72C298.935 257.491 297.568 257.955 296.15 258.07C292.472 258.306 288.785 257.778 285.32 256.52C285.32 256.52 287 251.72 288.4 252.15Z" fill="white"/>
<path d="M262.23 277.59L259.08 282.43C259.08 282.43 251.43 279.02 246.08 276.95C242.965 275.793 240.065 274.123 237.5 272.01C237.691 269.926 238.025 267.858 238.5 265.82C239.12 263.72 239.33 261.97 237.5 262.9C235.67 263.83 234.4 267.44 234.29 267.9C234.29 267.9 223.54 257.09 222.2 257.33C220.86 257.57 221.2 259.19 224.06 262.52L226.95 265.86C226.95 265.86 220.36 269.65 221.43 273.79C222.5 277.93 231.19 279.79 231.19 279.79C231.19 279.79 256.62 299.33 262.25 295.79C267.88 292.25 275.85 282.14 275.85 282.14L262.23 277.59Z" fill="#FFA8A7"/>
<path d="M281.81 257.75C281.81 257.75 286.51 261.61 283.45 269.59C280.39 277.57 272.58 287.21 272.58 287.21C272.58 287.21 264.4 284.66 261.24 278.05L271.56 261.9C272.292 260.75 273.285 259.789 274.457 259.094C275.63 258.399 276.95 257.99 278.31 257.9C279.29 257.84 280.45 257.79 281.81 257.75Z" fill="#BA68C8"/>
<path opacity="0.4" d="M281.81 257.75C281.81 257.75 286.51 261.61 283.45 269.59C280.39 277.57 272.58 287.21 272.58 287.21C272.58 287.21 264.4 284.66 261.24 278.05L271.56 261.9C272.292 260.75 273.285 259.789 274.457 259.094C275.63 258.399 276.95 257.99 278.31 257.9C279.29 257.84 280.45 257.79 281.81 257.75Z" fill="white"/>
<path d="M281.35 213.36C281.35 213.36 276.71 212.74 275.53 215.93C274.79 217.93 277.15 219.47 277.15 219.47C277.15 219.47 274.15 222.28 278.62 223.15C278.543 223.63 278.586 224.121 278.745 224.58C278.904 225.039 279.175 225.451 279.533 225.78C279.89 226.109 280.324 226.344 280.794 226.465C281.265 226.585 281.758 226.587 282.23 226.47C282.23 226.47 281.71 229.47 285.62 230.56C285.62 230.56 283.62 235.82 287.36 235.89H290.83L289.43 239.95C289.43 239.95 292.03 246.21 300.13 246.21C301.019 244.308 302.02 242.462 303.13 240.68C304.13 239.43 309.13 233.02 309.13 227.94C309.13 222.86 307.18 219.85 304.47 219.18C303.612 217.313 302.273 215.709 300.59 214.53C297.86 212.69 292.12 211.05 288.88 213.31C288.88 213.31 286.01 209.54 284.02 209.54C282.03 209.54 281.35 211.59 281.35 213.36Z" fill="#263238"/>
<path d="M287.36 235.89C287.36 235.89 287.02 230.56 291.51 230.56C296 230.56 294.94 239.95 289.43 239.95L287.36 235.89Z" fill="#FFA8A7"/>
</svg>
