<svg width="500" height="500" viewBox="0 0 500 500" fill="none" xmlns="http://www.w3.org/2000/svg">
<path d="M500 382.4H0V382.65H500V382.4Z" fill="#E6E6E6"/>
<path d="M124.82 397.53H91.7V397.78H124.82V397.53Z" fill="#E6E6E6"/>
<path d="M81.22 397.53H62.03V397.78H81.22V397.53Z" fill="#E6E6E6"/>
<path d="M210.55 401.21H191.36V401.46H210.55V401.21Z" fill="#E6E6E6"/>
<path d="M310.61 406.79H267.42V407.04H310.61V406.79Z" fill="#E6E6E6"/>
<path d="M258.52 406.79H252.19V407.04H258.52V406.79Z" fill="#E6E6E6"/>
<path d="M453.35 401.21H359.67V401.46H453.35V401.21Z" fill="#E6E6E6"/>
<path d="M237 337.8H43.91C42.3974 337.797 40.9476 337.195 39.8789 336.124C38.8102 335.054 38.21 333.603 38.21 332.09V60.66C38.2232 59.156 38.8292 57.718 39.8965 56.6582C40.9637 55.5985 42.406 55.0026 43.91 55H237C238.514 55 239.967 55.6016 241.038 56.6724C242.108 57.7433 242.71 59.1956 242.71 60.71V332.09C242.71 333.604 242.108 335.057 241.038 336.128C239.967 337.198 238.514 337.8 237 337.8V337.8ZM43.91 55.2C42.4637 55.2026 41.0775 55.7791 40.0557 56.8027C39.0339 57.8264 38.46 59.2136 38.46 60.66V332.09C38.46 333.536 39.0339 334.924 40.0557 335.947C41.0775 336.971 42.4637 337.547 43.91 337.55H237C238.447 337.547 239.835 336.971 240.858 335.948C241.881 334.924 242.457 333.537 242.46 332.09V60.66C242.457 59.2127 241.881 57.8255 240.858 56.8021C239.835 55.7787 238.447 55.2026 237 55.2H43.91Z" fill="#E6E6E6"/>
<path d="M453.31 337.8H260.21C258.696 337.797 257.246 337.195 256.175 336.125C255.105 335.054 254.503 333.604 254.5 332.09V60.66C254.516 59.1551 255.124 57.7171 256.193 56.6576C257.262 55.5981 258.705 55.0025 260.21 55H453.31C454.812 55.0052 456.252 55.6022 457.317 56.6617C458.382 57.7212 458.987 59.1578 459 60.66V332.09C459 333.601 458.401 335.05 457.335 336.121C456.268 337.191 454.821 337.795 453.31 337.8V337.8ZM260.21 55.2C258.763 55.2026 257.375 55.7787 256.352 56.8021C255.329 57.8255 254.753 59.2127 254.75 60.66V332.09C254.753 333.537 255.329 334.924 256.352 335.948C257.375 336.971 258.763 337.547 260.21 337.55H453.31C454.757 337.547 456.145 336.971 457.168 335.948C458.191 334.924 458.767 333.537 458.77 332.09V60.66C458.767 59.2127 458.191 57.8255 457.168 56.8021C456.145 55.7787 454.757 55.2026 453.31 55.2H260.21Z" fill="#E6E6E6"/>
<path d="M267.4 296.98H245.41V384.21H267.4V296.98Z" fill="#E0E0E0"/>
<path d="M263.22 384.21H267.4V372.33H258.84L263.22 384.21Z" fill="#FAFAFA"/>
<path d="M171.04 296.98H149.05V384.21H171.04V296.98Z" fill="#E0E0E0"/>
<path d="M267.4 296.98H167.4V376.92H267.4V296.98Z" fill="#FAFAFA"/>
<path d="M263.77 300.91V322.06H171V300.91H263.74H263.77ZM264.13 300.52H170.64V322.44H264.16V300.52H264.13Z" fill="#E0E0E0"/>
<path d="M171.57 384.21H167.4V372.33H175.95L171.57 384.21Z" fill="#FAFAFA"/>
<path d="M215.19 311.48C215.19 311.917 215.32 312.344 215.562 312.708C215.805 313.071 216.15 313.354 216.554 313.522C216.958 313.689 217.402 313.733 217.831 313.648C218.26 313.562 218.654 313.352 218.963 313.043C219.272 312.734 219.482 312.34 219.568 311.911C219.653 311.482 219.609 311.038 219.442 310.634C219.275 310.23 218.991 309.885 218.628 309.642C218.264 309.4 217.837 309.27 217.4 309.27C216.814 309.27 216.252 309.503 215.837 309.917C215.423 310.332 215.19 310.894 215.19 311.48V311.48Z" fill="#E6E6E6"/>
<path d="M263.77 326.37V347.52H171V326.37H263.74H263.77ZM264.13 325.99H170.64V347.91H264.16V326L264.13 325.99Z" fill="#E0E0E0"/>
<path d="M215.19 337C215.19 337.437 215.32 337.864 215.562 338.228C215.805 338.591 216.15 338.875 216.554 339.042C216.958 339.209 217.402 339.253 217.831 339.168C218.26 339.082 218.654 338.872 218.963 338.563C219.272 338.254 219.482 337.86 219.568 337.431C219.653 337.002 219.609 336.558 219.442 336.154C219.275 335.75 218.991 335.405 218.628 335.162C218.264 334.92 217.837 334.79 217.4 334.79C216.814 334.79 216.252 335.023 215.837 335.437C215.423 335.852 215.19 336.414 215.19 337Z" fill="#E6E6E6"/>
<path d="M263.77 351.84V373H171V351.84H263.74H263.77ZM264.13 351.45H170.64V373.38H264.16V351.45H264.13Z" fill="#E0E0E0"/>
<path d="M215.19 362.42C215.192 362.857 215.323 363.283 215.567 363.645C215.811 364.007 216.157 364.289 216.561 364.455C216.965 364.62 217.409 364.663 217.837 364.576C218.265 364.49 218.658 364.279 218.966 363.969C219.274 363.66 219.484 363.266 219.568 362.837C219.653 362.409 219.608 361.965 219.441 361.562C219.273 361.159 218.99 360.814 218.627 360.572C218.264 360.329 217.837 360.2 217.4 360.2C217.109 360.2 216.821 360.257 216.552 360.369C216.283 360.481 216.039 360.645 215.834 360.851C215.628 361.057 215.466 361.302 215.355 361.571C215.245 361.84 215.189 362.129 215.19 362.42V362.42Z" fill="#E6E6E6"/>
<path d="M157.61 246.32H135.62V384.22H157.61V246.32Z" fill="#E0E0E0"/>
<path d="M153.43 384.21H157.61V372.33H149.06L153.43 384.21Z" fill="#FAFAFA"/>
<path d="M75.43 246.32H53.44V384.22H75.43V246.32Z" fill="#E0E0E0"/>
<path d="M157.61 246.32H71.78V376.93H157.61V246.32Z" fill="#FAFAFA"/>
<path d="M153.91 250V279.57H75.48V250H153.91V250ZM154.37 249.55H75V280H154.35V249.56L154.37 249.55Z" fill="#E0E0E0"/>
<path d="M153.91 283.18V361.61H116.55V283.18H153.91ZM154.37 282.72H116.1V362.07H154.37V282.72Z" fill="#E0E0E0"/>
<path d="M112.84 283.18V361.61H75.48V283.18H112.84ZM113.29 282.72H75V362.07H113.27V282.72H113.29Z" fill="#E0E0E0"/>
<path d="M75.96 384.21H71.78V372.33H80.34L75.96 384.21Z" fill="#FAFAFA"/>
<path d="M112.48 264.8C112.478 265.239 112.607 265.67 112.849 266.036C113.092 266.402 113.438 266.689 113.843 266.858C114.249 267.028 114.696 267.073 115.127 266.989C115.558 266.904 115.955 266.693 116.266 266.383C116.578 266.073 116.79 265.678 116.877 265.247C116.963 264.816 116.92 264.369 116.752 263.963C116.584 263.557 116.3 263.209 115.934 262.965C115.569 262.72 115.139 262.59 114.7 262.59C114.113 262.59 113.55 262.823 113.134 263.237C112.718 263.651 112.483 264.213 112.48 264.8Z" fill="#E6E6E6"/>
<path d="M120.4 320.53C120.4 320.969 120.53 321.399 120.775 321.764C121.019 322.13 121.367 322.414 121.773 322.582C122.179 322.75 122.626 322.793 123.057 322.707C123.488 322.62 123.883 322.408 124.193 322.096C124.503 321.785 124.714 321.388 124.799 320.957C124.883 320.526 124.838 320.079 124.668 319.673C124.499 319.268 124.212 318.922 123.846 318.679C123.48 318.437 123.049 318.308 122.61 318.31C122.319 318.31 122.031 318.367 121.762 318.479C121.493 318.591 121.249 318.755 121.044 318.961C120.838 319.167 120.676 319.412 120.565 319.681C120.455 319.95 120.399 320.239 120.4 320.53V320.53Z" fill="#E6E6E6"/>
<path d="M104.57 320.53C104.572 320.967 104.703 321.393 104.947 321.755C105.191 322.117 105.537 322.399 105.941 322.565C106.345 322.73 106.789 322.773 107.217 322.686C107.645 322.6 108.038 322.389 108.346 322.079C108.654 321.77 108.864 321.376 108.948 320.947C109.033 320.519 108.988 320.075 108.821 319.672C108.653 319.269 108.37 318.924 108.007 318.682C107.644 318.439 107.217 318.31 106.78 318.31C106.489 318.31 106.201 318.367 105.932 318.479C105.663 318.591 105.419 318.755 105.214 318.961C105.008 319.167 104.846 319.412 104.735 319.681C104.625 319.95 104.569 320.239 104.57 320.53V320.53Z" fill="#E6E6E6"/>
<path d="M102.07 207.87H92.8C93.6543 212.367 94.1923 216.918 94.41 221.49C94.41 226.49 87.35 246.32 97.41 246.32C107.47 246.32 100.41 226.54 100.41 221.49C100.644 216.917 101.199 212.366 102.07 207.87V207.87Z" fill="#E0E0E0"/>
<path d="M66.8 228.15V234.15C66.8105 237.366 68.0929 240.448 70.3674 242.723C72.6418 244.997 75.7235 246.279 78.94 246.29H84.94C88.1565 246.279 91.2382 244.997 93.5126 242.723C95.787 240.448 97.0694 237.366 97.08 234.15V228.15H66.8Z" fill="#F5F5F5"/>
<path d="M195.67 284.26C195.67 291.26 203.5 296.98 213.07 296.98H221.71C231.28 296.98 239.11 291.26 239.11 284.26H195.67Z" fill="#E0E0E0"/>
<path d="M424.61 274C419.37 278.28 412.13 286.11 405.51 297.13C401.09 304.47 398.43 312.13 397.26 322.31C397.26 310.81 397.33 298.46 397.37 286.8C398.7 283.8 401.74 276.88 403.92 271.42C411.19 253.19 413.92 248.7 420.45 232.98C429.18 211.98 438.12 187.12 435.56 189.11C430.34 193.16 410.34 230.61 408.18 235.97C402.292 250.274 398.653 265.403 397.39 280.82C397.39 269.82 397.47 259.82 397.51 252.06C397.65 226.75 398.08 218.58 398.29 216.06C399.1 214.78 400.05 213.29 400.61 212.49C405.31 205.69 407.12 199.91 411.54 189.77C417.82 175.42 423.22 149.93 421.64 151.21C415.06 156.57 409.88 168.07 403.06 182.74C396.24 197.41 398.19 205.84 396.84 218.36C396.56 220.82 396.34 230.1 396.18 242.95C394.42 229.25 391.1 220.23 385.05 212.03C377.61 201.94 370.41 195.13 365.13 191.57C359.85 188.01 374.25 212.79 381.13 223.57C387.26 233.21 392.91 241.7 396.13 250.07C395.96 267.5 395.88 289.56 395.88 310.07C394.3 300.73 391.72 290.66 388.28 282.87C384.14 273.51 377.78 259.15 372.71 254.28C371.5 253.11 378.01 281.04 382.19 288.46C386.37 295.88 389.44 302.89 392.07 307.1C392.68 308.1 394.72 311.87 395.88 314.05C395.88 339.12 396.02 361.24 396.24 368.77H397.32C397.25 366.83 397.23 354.07 397.26 337.19C399.87 328.03 405.83 317.57 410.75 308.03C416.11 297.7 429.85 269.75 424.61 274Z" fill="#E0E0E0"/>
<path d="M412.44 384.21H381.1L378.73 353.49H414.81L412.44 384.21Z" fill="#F0F0F0"/>
<path d="M417.14 357.07H376.39L375.23 346.7H418.31L417.14 357.07Z" fill="#F5F5F5"/>
<path d="M124.26 75.5H68.21V137.05H124.26V75.5Z" fill="#E0E0E0"/>
<path d="M130.33 75.5H72.43V137.05H130.33V75.5Z" fill="#F5F5F5"/>
<path d="M125.48 132.2V80.35H77.28V132.2H125.48Z" fill="white"/>
<path d="M113.79 119.62V92.91H88.96V119.62H113.79Z" fill="#F5F5F5"/>
<path d="M410.05 82.67H357.98V139.85H410.05V82.67Z" fill="#E0E0E0"/>
<path d="M415.69 82.67H361.91V139.85H415.69V82.67Z" fill="#F5F5F5"/>
<path d="M411.19 135.34V87.18H366.42V135.34H411.19Z" fill="white"/>
<path d="M388.8 125.23C396.515 125.23 402.77 118.975 402.77 111.26C402.77 103.545 396.515 97.29 388.8 97.29C381.085 97.29 374.83 103.545 374.83 111.26C374.83 118.975 381.085 125.23 388.8 125.23Z" fill="#F5F5F5"/>
<path d="M182.49 112.2H140.91V157.86H182.49V112.2Z" fill="#E0E0E0"/>
<path d="M186.99 112.2H144.04V157.86H186.99V112.2Z" fill="#F5F5F5"/>
<path d="M183.39 154.26V115.8H147.64V154.26H183.39Z" fill="white"/>
<path d="M165.52 125.3L155.74 142.24H175.3L165.52 125.3Z" fill="#F5F5F5"/>
<path d="M250 427.56C357.082 427.56 443.89 422.492 443.89 416.24C443.89 409.988 357.082 404.92 250 404.92C142.917 404.92 56.11 409.988 56.11 416.24C56.11 422.492 142.917 427.56 250 427.56Z" fill="#F5F5F5"/>
<path d="M350.08 161.892L340.16 157.892C340.16 157.892 327.07 181.762 323.32 182.972C318.22 184.612 307.66 189.172 301.4 189.972C300.55 190.972 299.16 194.082 299.29 195.212C307.7 198.022 326.18 194.292 330.14 191.352C339.15 184.682 350.08 161.892 350.08 161.892Z" fill="#E58A7B"/>
<path d="M353.13 156.462C354.98 163.292 344.96 177.032 344.96 177.032L331.83 169.672C331.83 169.672 334.29 164.022 337.29 158.272C342.1 148.982 351.02 148.672 353.13 156.462Z" fill="#C8C8C9"/>
<path opacity="0.2" d="M353.13 156.462C354.98 163.292 344.96 177.032 344.96 177.032L331.83 169.672C331.83 169.672 334.29 164.022 337.29 158.272C342.1 148.982 351.02 148.672 353.13 156.462Z" fill="black"/>
<path opacity="0.2" d="M337.04 172.612L342.21 175.512L343.12 159.642C340.11 161.952 337.99 168.912 337.04 172.612Z" fill="black"/>
<path d="M344.49 151.322C344.49 151.322 334.27 174.062 340.23 216.402H380.5C381.14 210.222 379.02 180.062 386.69 150.942C382.272 150.079 377.803 149.507 373.31 149.232C367.611 148.902 361.899 148.902 356.2 149.232C352.25 149.633 348.335 150.332 344.49 151.322V151.322Z" fill="#FAFAFB"/>
<path opacity="0.2" d="M344.49 151.322C344.49 151.322 334.27 174.062 340.23 216.402H380.5C381.14 210.222 379.02 180.062 386.69 150.942C382.272 150.079 377.803 149.507 373.31 149.232C367.611 148.902 361.899 148.902 356.2 149.232C352.25 149.633 348.335 150.332 344.49 151.322V151.322Z" fill="black"/>
<g style="mix-blend-mode:multiply">
<path d="M335.15 415.602C335.09 416.682 350.36 417.552 369.25 417.552C388.14 417.552 403.52 416.682 403.58 415.602C403.64 414.522 388.38 413.662 369.48 413.662C350.58 413.662 335.22 414.532 335.15 415.602Z" fill="#E8ECF1"/>
</g>
<path d="M362.031 387.225L354.888 389.989L361.041 405.883L368.183 403.118L362.031 387.225Z" fill="#E58A7B"/>
<path d="M393.88 407.912H386.35L383.59 390.482H391.12L393.88 407.912Z" fill="#E58A7B"/>
<path d="M385.83 407.042H394.29C394.437 407.042 394.579 407.095 394.69 407.19C394.802 407.285 394.876 407.417 394.9 407.562L395.99 414.252C396.013 414.42 396 414.591 395.951 414.753C395.902 414.915 395.818 415.065 395.706 415.192C395.594 415.319 395.456 415.42 395.302 415.489C395.147 415.558 394.979 415.593 394.81 415.592C391.86 415.542 390.44 415.362 386.72 415.362C384.43 415.362 379.72 415.602 376.54 415.602C373.36 415.602 373.15 412.482 374.46 412.192C380.34 410.922 382.62 409.192 384.58 407.512C384.926 407.208 385.37 407.041 385.83 407.042V407.042Z" fill="#263238"/>
<path d="M360.83 404.462L368.83 402.122C368.973 402.082 369.125 402.091 369.261 402.15C369.398 402.208 369.51 402.311 369.58 402.442L372.58 408.442C372.65 408.594 372.685 408.76 372.684 408.927C372.683 409.094 372.646 409.26 372.574 409.411C372.503 409.563 372.399 409.697 372.271 409.804C372.142 409.911 371.992 409.989 371.83 410.032C368.92 410.832 366.97 411.322 363.33 412.382C360.82 413.112 358.26 414.302 355.78 415.092C354.06 415.642 350.02 415.662 347.93 415.662C344.84 415.662 344.15 412.402 345.48 412.252C348.83 411.882 349.28 412.052 351.13 411.122C354.157 409.799 356.9 407.904 359.21 405.542C359.645 405.045 360.204 404.673 360.83 404.462V404.462Z" fill="#263238"/>
<path d="M302.66 189.932L294.38 186.462L290.97 195.642C294.364 196.159 297.816 196.159 301.21 195.642L302.66 189.932Z" fill="#E58A7B"/>
<path d="M288.22 186.222L288 192.322L290.97 195.622L294.38 186.442L288.22 186.222Z" fill="#E58A7B"/>
<path d="M362.165 388L355 390.766L358.173 398.985L365.338 396.219L362.165 388Z" fill="#CF6F64"/>
<path d="M391.12 390.482H383.59L385.02 399.472H392.55L391.12 390.482Z" fill="#CF6F64"/>
<path opacity="0.2" d="M338.95 204.952C339.1 206.762 339.27 208.612 339.49 210.512L369.43 200.792C374.106 199.406 378.169 196.468 380.95 192.462C381.07 189.792 381.22 186.982 381.45 184.052C381.55 182.632 381.67 181.172 381.8 179.692C381.93 178.212 382.11 176.572 382.3 174.992L338.95 204.952Z" fill="black"/>
<path d="M348.73 172.152L347.73 172.032C348.32 167.032 352.05 163.092 355.98 163.192V164.192C352.54 164.122 349.26 167.672 348.73 172.152Z" fill="white"/>
<path d="M354.06 181.382H353.89V180.382C357.33 180.512 360.56 176.922 361.09 172.452L362.09 172.572C361.56 177.462 357.95 181.382 354.06 181.382Z" fill="white"/>
<path d="M372.75 129.962C371.34 135.472 369.68 145.562 373.31 149.232C373.31 149.232 370.77 154.822 360.54 154.822C351.19 154.822 356.2 149.232 356.2 149.232C362.42 147.772 362.53 143.232 361.71 138.932L372.75 129.962Z" fill="#E58A7B"/>
<path d="M368.25 133.622L361.72 138.932C361.922 139.92 362.039 140.924 362.07 141.932C363.98 143.832 367.81 139.022 368.2 136.562C368.398 135.593 368.415 134.597 368.25 133.622Z" fill="#CF6F64"/>
<path d="M350.49 129.892C350.944 130.679 351.556 131.365 352.288 131.905C353.019 132.445 353.854 132.829 354.74 133.032C357.14 133.562 358.34 131.352 357.68 129.132C357.09 127.132 355.12 124.442 352.68 124.902C352.157 125.01 351.668 125.241 351.253 125.576C350.838 125.912 350.51 126.342 350.295 126.831C350.081 127.32 349.987 127.852 350.021 128.385C350.054 128.918 350.215 129.434 350.49 129.892V129.892Z" fill="#CF6F64"/>
<path d="M354.46 112.262C350.72 113.972 349.4 128.832 354.1 131.032C358.8 133.232 361.54 109.012 354.46 112.262Z" fill="#263238"/>
<path d="M373.89 121.672C372.99 129.132 372.89 133.522 368.89 137.342C367.65 138.61 366.085 139.51 364.366 139.944C362.647 140.378 360.841 140.328 359.149 139.8C357.456 139.273 355.942 138.288 354.774 136.954C353.606 135.62 352.83 133.989 352.53 132.242C351.32 125.542 352.99 114.472 360.47 111.502C362.042 110.809 363.77 110.548 365.476 110.748C367.182 110.948 368.804 111.6 370.173 112.638C371.542 113.675 372.608 115.06 373.262 116.648C373.916 118.237 374.132 119.971 373.89 121.672V121.672Z" fill="#E58A7B"/>
<path d="M361.6 116.122C367.14 114.712 371.21 113.752 369.75 118.362C367.82 124.522 365.5 130.482 368.61 130.752C370.51 130.922 378.91 127.362 377.84 123.752C376.91 120.612 380.84 119.752 381.54 118.162C384.13 112.402 376.72 113.162 378.04 109.662C379.36 106.162 372.04 100.522 368.04 103.332C361.53 107.872 350.36 107.802 356.23 100.332C360.44 95.0019 352.93 96.0918 352.93 96.0918C352.93 96.0918 357.47 98.7819 349.83 102.942C341.75 107.382 349.16 119.312 361.6 116.122Z" fill="#263238"/>
<path d="M376.83 129.892C375.736 131.474 374.093 132.594 372.22 133.032C369.75 133.562 368.8 131.352 369.73 129.132C370.56 127.132 372.84 124.442 375.2 124.902C377.56 125.362 378.1 127.932 376.83 129.892Z" fill="#E58A7B"/>
<path d="M340.23 216.402C340.23 216.402 333.47 276.902 332.94 299.862C332.4 323.742 355.85 398.252 355.85 398.252L367.85 393.252C367.85 393.252 353.85 325.172 355.85 301.722C357.97 276.152 366.73 216.442 366.73 216.442L340.23 216.402Z" fill="#373737"/>
<path opacity="0.2" d="M357.03 233.012C351.64 244.192 355.27 266.302 358.19 279.402C359.3 270.152 360.62 260.112 361.87 250.822C361.75 236.542 360.64 225.512 357.03 233.012Z" fill="black"/>
<path d="M367.32 389.292C367.38 389.292 368.74 393.112 368.74 393.112L354.9 398.932L352.72 394.872L367.32 389.292Z" fill="#373737"/>
<path d="M354.52 216.402C354.52 216.402 359.69 273.942 363.11 295.492C366.87 319.102 381.61 397.732 381.61 397.732H395.4C395.4 397.732 387.14 321.012 385.58 297.632C383.88 272.272 380.5 216.402 380.5 216.402H354.52Z" fill="#373737"/>
<path d="M395.61 394.142C395.67 394.142 396.07 397.992 396.07 397.992H380.91L379.83 393.572L395.61 394.142Z" fill="#373737"/>
<path opacity="0.2" d="M390.33 389.582C390.299 389.582 390.268 389.571 390.244 389.551C390.221 389.531 390.205 389.503 390.2 389.472C390.12 388.772 382.67 319.472 381.27 298.472C379.75 275.692 376.69 225.162 376.66 224.652C376.659 224.635 376.661 224.619 376.666 224.603C376.671 224.587 376.68 224.573 376.691 224.56C376.703 224.548 376.716 224.538 376.732 224.532C376.747 224.525 376.763 224.522 376.78 224.522V224.522C376.813 224.522 376.844 224.534 376.869 224.556C376.893 224.579 376.907 224.609 376.91 224.642C376.91 225.152 380 275.642 381.52 298.462C382.92 319.462 390.37 388.712 390.44 389.462C390.443 389.478 390.442 389.495 390.438 389.512C390.434 389.528 390.426 389.543 390.416 389.556C390.406 389.569 390.393 389.58 390.378 389.588C390.363 389.596 390.347 389.601 390.33 389.602V389.582Z" fill="black"/>
<path d="M362.45 123.752C362.45 124.362 362.07 124.852 361.67 124.852C361.27 124.852 360.98 124.362 361.02 123.752C361.06 123.142 361.4 122.652 361.8 122.652C362.2 122.652 362.49 123.152 362.45 123.752Z" fill="#263238"/>
<path d="M355.59 123.752C355.59 124.362 355.2 124.852 354.81 124.852C354.42 124.852 354.12 124.362 354.15 123.752C354.18 123.142 354.54 122.652 354.94 122.652C355.34 122.652 355.63 123.152 355.59 123.752Z" fill="#263238"/>
<path d="M357.75 124.062C356.915 125.925 355.839 127.669 354.55 129.252C355.55 130.252 357.42 129.792 357.42 129.792L357.75 124.062Z" fill="#DF5753"/>
<path d="M357.93 132.342C357.907 132.342 357.884 132.337 357.863 132.328C357.841 132.319 357.822 132.305 357.806 132.289C357.79 132.272 357.778 132.252 357.77 132.23C357.762 132.208 357.759 132.185 357.76 132.162C357.763 132.113 357.784 132.067 357.819 132.034C357.854 132 357.901 131.982 357.95 131.982C358.715 131.987 359.471 131.821 360.163 131.496C360.855 131.17 361.466 130.694 361.95 130.102C361.985 130.072 362.029 130.055 362.075 130.055C362.121 130.055 362.165 130.072 362.2 130.102C362.232 130.135 362.25 130.18 362.25 130.227C362.25 130.273 362.232 130.318 362.2 130.352C361.682 130.981 361.029 131.487 360.291 131.831C359.552 132.175 358.745 132.35 357.93 132.342V132.342Z" fill="#263238"/>
<path d="M363.67 121.912C363.622 121.936 363.569 121.949 363.515 121.949C363.461 121.949 363.408 121.936 363.36 121.912C362.986 121.67 362.56 121.52 362.117 121.473C361.674 121.426 361.226 121.484 360.81 121.642C360.769 121.662 360.725 121.674 360.68 121.677C360.635 121.68 360.589 121.674 360.546 121.659C360.503 121.644 360.464 121.621 360.43 121.59C360.397 121.56 360.369 121.523 360.35 121.482C360.313 121.393 360.312 121.293 360.347 121.203C360.383 121.114 360.452 121.041 360.54 121.002C361.063 120.788 361.629 120.704 362.192 120.756C362.754 120.809 363.295 120.996 363.77 121.302C363.808 121.328 363.841 121.361 363.866 121.4C363.892 121.439 363.909 121.482 363.917 121.528C363.926 121.574 363.925 121.62 363.915 121.666C363.905 121.711 363.887 121.754 363.86 121.792C363.809 121.849 363.743 121.891 363.67 121.912V121.912Z" fill="#263238"/>
<path d="M352.94 119.912C352.887 119.899 352.838 119.871 352.8 119.832C352.767 119.799 352.74 119.76 352.722 119.717C352.704 119.675 352.695 119.628 352.695 119.582C352.695 119.535 352.704 119.489 352.722 119.446C352.74 119.403 352.767 119.364 352.8 119.332C353.183 118.902 353.661 118.566 354.195 118.351C354.729 118.136 355.306 118.047 355.88 118.092C355.926 118.099 355.97 118.115 356.009 118.14C356.049 118.165 356.083 118.198 356.109 118.236C356.135 118.275 356.153 118.318 356.162 118.364C356.171 118.409 356.17 118.456 356.16 118.502C356.139 118.594 356.084 118.676 356.007 118.731C355.929 118.787 355.835 118.812 355.74 118.802V118.802C355.286 118.773 354.831 118.848 354.41 119.022C353.989 119.195 353.613 119.462 353.31 119.802C353.264 119.852 353.206 119.89 353.14 119.909C353.075 119.928 353.006 119.929 352.94 119.912V119.912Z" fill="#263238"/>
<path d="M390.56 160.782L380.16 158.012C380.16 158.012 369.96 183.122 366.35 184.752C361.45 186.992 349.04 194.752 343.76 198.422C343.47 199.672 343.7 202.982 344.36 203.892C353.36 202.252 370.59 195.622 374.19 192.252C382.4 184.562 390.56 160.782 390.56 160.782Z" fill="#E58A7B"/>
<path d="M383.3 408.362C382.792 408.402 382.287 408.264 381.87 407.972C381.741 407.856 381.645 407.708 381.591 407.543C381.536 407.378 381.526 407.202 381.56 407.032C381.566 406.926 381.601 406.823 381.661 406.735C381.721 406.647 381.803 406.577 381.9 406.532C382.74 406.102 385.09 407.592 385.36 407.762C385.39 407.78 385.413 407.808 385.425 407.84C385.438 407.873 385.44 407.908 385.43 407.942C385.421 407.977 385.404 408.009 385.38 408.035C385.355 408.061 385.324 408.081 385.29 408.092C384.638 408.252 383.971 408.343 383.3 408.362ZM382.3 406.802C382.224 406.785 382.146 406.785 382.07 406.802C382.032 406.821 382 406.852 381.979 406.889C381.957 406.926 381.947 406.969 381.95 407.012C381.923 407.128 381.928 407.25 381.963 407.364C381.998 407.478 382.063 407.581 382.15 407.662C382.54 408.012 383.52 408.052 384.81 407.802C384.042 407.296 383.177 406.955 382.27 406.802H382.3Z" fill="#407BFF"/>
<path d="M385.24 408.092C385.214 408.1 385.186 408.1 385.16 408.092C384.41 407.672 383 406.022 383.21 405.182C383.241 405.049 383.317 404.93 383.424 404.845C383.531 404.759 383.663 404.713 383.8 404.712C383.934 404.694 384.071 404.705 384.2 404.745C384.33 404.785 384.449 404.852 384.55 404.942C385.38 405.652 385.43 407.832 385.43 407.942C385.435 407.975 385.429 408.008 385.412 408.037C385.396 408.066 385.371 408.089 385.34 408.102C385.306 408.109 385.272 408.105 385.24 408.092ZM383.9 405.042H383.83C383.6 405.042 383.57 405.172 383.56 405.222C383.44 405.712 384.33 406.962 385.07 407.552C385.067 406.707 384.805 405.884 384.32 405.192C384.204 405.091 384.054 405.037 383.9 405.042V405.042Z" fill="#407BFF"/>
<path d="M356.75 407.112C356.138 407.325 355.472 407.325 354.86 407.112C354.721 407.037 354.603 406.928 354.518 406.795C354.432 406.662 354.381 406.51 354.37 406.352C354.357 406.253 354.37 406.153 354.407 406.06C354.443 405.967 354.503 405.885 354.58 405.822C355.38 405.102 358.65 405.822 359.02 405.962C359.055 405.971 359.086 405.992 359.108 406.021C359.13 406.05 359.141 406.086 359.14 406.122C359.141 406.159 359.132 406.196 359.112 406.229C359.093 406.261 359.064 406.286 359.03 406.302C358.294 406.634 357.531 406.905 356.75 407.112V407.112ZM355.12 405.922C355.006 405.945 354.899 405.996 354.81 406.072C354.778 406.096 354.754 406.128 354.74 406.165C354.725 406.202 354.722 406.243 354.73 406.282C354.737 406.387 354.769 406.488 354.825 406.578C354.881 406.667 354.958 406.74 355.05 406.792C355.58 407.072 356.81 406.852 358.4 406.182C357.329 405.912 356.22 405.824 355.12 405.922V405.922Z" fill="#407BFF"/>
<path d="M359 406.302H358.92C357.92 406.122 355.92 404.972 355.86 404.112C355.86 403.912 355.95 403.632 356.43 403.472C356.592 403.414 356.764 403.39 356.936 403.4C357.108 403.41 357.276 403.455 357.43 403.532C358.51 404.062 359.08 405.982 359.11 406.072C359.117 406.102 359.116 406.134 359.107 406.163C359.099 406.193 359.082 406.22 359.06 406.242C359.045 406.266 359.024 406.287 359 406.302V406.302ZM356.63 403.772H356.53C356.22 403.882 356.22 404.012 356.22 404.052C356.22 404.572 357.67 405.522 358.68 405.842C358.447 405.039 357.955 404.335 357.28 403.842C357.079 403.74 356.848 403.715 356.63 403.772Z" fill="#407BFF"/>
<path d="M344.61 197.832L334.18 202.632L332.97 205.632L336.82 208.222C336.82 208.222 344.02 207.442 346.07 202.812L344.61 197.832Z" fill="#E58A7B"/>
<path d="M345.05 204.062C344.817 202.058 344.155 200.127 343.11 198.402L344.76 197.162C346.001 199.15 346.793 201.386 347.08 203.712L345.05 204.062Z" fill="#263238"/>
<path d="M346.83 199.252C347.05 199.599 347.159 200.005 347.14 200.416C347.122 200.826 346.977 201.221 346.726 201.546C346.475 201.872 346.13 202.112 345.738 202.234C345.345 202.357 344.925 202.355 344.533 202.23C344.142 202.105 343.798 201.862 343.55 201.535C343.301 201.208 343.159 200.812 343.144 200.401C343.128 199.991 343.239 199.585 343.462 199.24C343.685 198.895 344.009 198.626 344.39 198.472C344.817 198.254 345.313 198.214 345.77 198.36C346.227 198.506 346.608 198.827 346.83 199.252V199.252Z" fill="#263238"/>
<path d="M327.13 206.512L328.52 207.912L337.88 203.912L334.18 202.632L327.13 206.512Z" fill="#E58A7B"/>
<path opacity="0.2" d="M367.6 390C367.66 390 369.02 393.82 369.02 393.82L355.18 399.64L353 395.58L367.6 390Z" fill="#373737"/>
<path opacity="0.2" d="M395.377 394.978C395.436 394.978 395.83 398.462 395.83 398.462H380.894L379.83 394.462L395.377 394.978Z" fill="#373737"/>
<path d="M393.27 157.902C396.02 166.772 385.27 178.902 385.27 178.902L370.42 172.842C372.18 167.715 374.21 162.685 376.5 157.772C381.06 147.942 390.49 148.952 393.27 157.902Z" fill="#C8C8C9"/>
<path opacity="0.2" d="M393.27 157.902C396.02 166.772 385.27 178.902 385.27 178.902L370.42 172.842C372.18 167.715 374.21 162.685 376.5 157.772C381.06 147.942 390.49 148.952 393.27 157.902Z" fill="#C8C8C9"/>
<path d="M244.88 70.57H238.49V71.6H244.88V70.57Z" fill="#FBC940"/>
<path d="M327.598 111.337L326.825 128.499L327.854 128.545L328.627 111.383L327.598 111.337Z" fill="#FBC940"/>
<path d="M325.61 75.19H207.61L196.63 320.91H314.63L325.61 75.19Z" fill="#FBC940"/>
<path opacity="0.56" d="M322.09 78.57H204.09L193.11 324.29H311.11L322.09 78.57Z" fill="#FAFAFA"/>
<path opacity="0.07" d="M318.57 81.94H200.57L189.58 327.66H307.58L318.57 81.94Z" fill="#FBC940"/>
<path d="M305.14 189.11H204.42L203.58 207.91H304.3L305.14 189.11Z" fill="white"/>
<path d="M259.81 175.39H205.03L204.66 183.8H259.44L259.81 175.39Z" fill="#FBC940"/>
<path d="M302.87 239.85H202.15L201.31 258.65H302.03L302.87 239.85Z" fill="white"/>
<path opacity="0.47" d="M284.4 284.04H216.67L215.66 306.57H283.39L284.4 284.04Z" fill="#FBC940"/>
<path d="M279.87 310.07H212.14C212.111 310.078 212.08 310.078 212.05 310.07C212.04 310.041 212.04 310.009 212.05 309.98L213.05 287.44C213.05 287.425 213.053 287.409 213.059 287.395C213.065 287.381 213.074 287.369 213.086 287.358C213.097 287.348 213.11 287.34 213.125 287.335C213.139 287.33 213.155 287.329 213.17 287.33H280.9C280.912 287.324 280.926 287.321 280.94 287.321C280.954 287.321 280.968 287.324 280.98 287.33C280.987 287.342 280.991 287.356 280.991 287.37C280.991 287.384 280.987 287.398 280.98 287.41L280 310C279.988 310.023 279.969 310.043 279.946 310.055C279.923 310.068 279.896 310.073 279.87 310.07V310.07ZM212.26 309.83H279.75L280.75 287.53H213.26L212.26 309.83Z" fill="white"/>
<path d="M247.98 226.13H202.76L202.39 234.55H247.6L247.98 226.13Z" fill="#FBC940"/>
<path d="M283.11 128.38C282.852 133.851 280.906 139.109 277.54 143.43C275.048 146.694 271.842 149.344 268.167 151.176C264.492 153.009 260.446 153.975 256.34 154C253.022 154.025 249.733 153.371 246.677 152.077C243.622 150.784 240.863 148.878 238.571 146.478C236.28 144.078 234.504 141.234 233.353 138.121C232.202 135.009 231.701 131.694 231.88 128.38C232.232 121.504 235.197 115.022 240.169 110.26C245.142 105.498 251.745 102.815 258.63 102.76C261.951 102.729 265.243 103.379 268.302 104.671C271.362 105.962 274.124 107.867 276.418 110.269C278.713 112.67 280.49 115.516 281.641 118.631C282.792 121.746 283.292 125.064 283.11 128.38V128.38Z" fill="white"/>
<path d="M285.52 108.12C285.455 109.575 284.937 110.973 284.04 112.12C283.376 112.987 282.523 113.691 281.545 114.178C280.568 114.665 279.492 114.922 278.4 114.93C277.342 114.936 276.298 114.684 275.361 114.194C274.423 113.704 273.619 112.992 273.02 112.12C272.227 110.942 271.834 109.539 271.9 108.12C271.997 106.294 272.786 104.574 274.107 103.311C275.428 102.047 277.182 101.335 279.01 101.32C279.892 101.312 280.766 101.485 281.579 101.827C282.392 102.17 283.125 102.675 283.735 103.312C284.345 103.949 284.818 104.705 285.125 105.532C285.432 106.358 285.566 107.239 285.52 108.12V108.12Z" fill="#FBC940"/>
<path d="M215.27 198.51C215.222 199.316 214.87 200.073 214.286 200.63C213.701 201.187 212.927 201.501 212.12 201.51C211.73 201.515 211.344 201.439 210.984 201.289C210.625 201.138 210.3 200.915 210.03 200.634C209.76 200.353 209.551 200.019 209.415 199.654C209.279 199.289 209.22 198.899 209.24 198.51C209.283 197.703 209.634 196.942 210.219 196.384C210.805 195.827 211.581 195.514 212.39 195.51C212.779 195.507 213.165 195.583 213.524 195.734C213.883 195.886 214.207 196.108 214.477 196.389C214.746 196.67 214.956 197.003 215.092 197.368C215.229 197.732 215.289 198.121 215.27 198.51V198.51Z" fill="black"/>
<path d="M228.75 198.51C228.704 199.317 228.353 200.076 227.768 200.633C227.183 201.19 226.408 201.504 225.6 201.51C225.211 201.513 224.826 201.437 224.467 201.286C224.109 201.134 223.786 200.911 223.517 200.63C223.248 200.349 223.039 200.016 222.904 199.651C222.769 199.287 222.71 198.898 222.73 198.51C222.773 197.704 223.122 196.945 223.706 196.388C224.289 195.83 225.063 195.516 225.87 195.51C226.26 195.505 226.646 195.581 227.006 195.731C227.365 195.882 227.69 196.105 227.96 196.386C228.23 196.667 228.439 197.001 228.575 197.366C228.711 197.731 228.771 198.121 228.75 198.51V198.51Z" fill="black"/>
<path d="M242.24 198.51C242.194 199.317 241.843 200.076 241.258 200.633C240.673 201.19 239.898 201.504 239.09 201.51C238.701 201.513 238.315 201.437 237.956 201.286C237.597 201.134 237.273 200.912 237.003 200.631C236.734 200.35 236.524 200.017 236.388 199.652C236.251 199.288 236.191 198.899 236.21 198.51C236.256 197.703 236.607 196.944 237.192 196.387C237.777 195.83 238.552 195.516 239.36 195.51C239.75 195.505 240.136 195.581 240.496 195.731C240.855 195.882 241.18 196.105 241.45 196.386C241.72 196.667 241.929 197.001 242.065 197.366C242.201 197.731 242.261 198.121 242.24 198.51V198.51Z" fill="black"/>
<path d="M213 249.25C212.952 250.056 212.6 250.813 212.016 251.37C211.431 251.927 210.657 252.241 209.85 252.25C209.461 252.253 209.075 252.177 208.716 252.026C208.357 251.874 208.033 251.652 207.763 251.371C207.494 251.09 207.284 250.757 207.148 250.392C207.011 250.028 206.951 249.639 206.97 249.25C207.016 248.443 207.367 247.684 207.952 247.127C208.537 246.57 209.312 246.256 210.12 246.25C210.509 246.247 210.895 246.323 211.254 246.474C211.613 246.626 211.937 246.848 212.207 247.129C212.476 247.41 212.686 247.743 212.822 248.108C212.959 248.472 213.019 248.861 213 249.25Z" fill="black"/>
<path d="M226.48 249.25C226.434 250.055 226.085 250.813 225.502 251.369C224.919 251.926 224.146 252.241 223.34 252.25C222.95 252.255 222.564 252.179 222.204 252.029C221.845 251.878 221.52 251.655 221.25 251.374C220.98 251.093 220.771 250.759 220.635 250.394C220.499 250.029 220.439 249.639 220.46 249.25C220.506 248.443 220.857 247.684 221.442 247.127C222.027 246.57 222.802 246.256 223.61 246.25C223.999 246.247 224.384 246.323 224.743 246.474C225.101 246.626 225.424 246.849 225.693 247.13C225.962 247.411 226.171 247.744 226.306 248.109C226.441 248.473 226.5 248.862 226.48 249.25V249.25Z" fill="black"/>
<path d="M240 249.25C239.954 250.057 239.603 250.816 239.018 251.373C238.433 251.93 237.658 252.244 236.85 252.25C236.461 252.252 236.076 252.174 235.718 252.023C235.36 251.871 235.036 251.648 234.767 251.368C234.497 251.087 234.288 250.755 234.151 250.391C234.014 250.027 233.952 249.639 233.97 249.25C234.018 248.444 234.37 247.687 234.954 247.13C235.539 246.573 236.313 246.259 237.12 246.25C237.51 246.245 237.896 246.321 238.256 246.471C238.615 246.622 238.94 246.845 239.21 247.126C239.48 247.407 239.689 247.741 239.825 248.106C239.961 248.471 240.021 248.861 240 249.25V249.25Z" fill="black"/>
<path d="M253.46 249.25C253.412 250.056 253.06 250.813 252.476 251.37C251.891 251.927 251.117 252.241 250.31 252.25C249.921 252.252 249.536 252.174 249.178 252.023C248.82 251.871 248.496 251.648 248.227 251.368C247.957 251.087 247.748 250.755 247.611 250.391C247.474 250.027 247.412 249.639 247.43 249.25C247.478 248.444 247.83 247.687 248.414 247.13C248.999 246.573 249.773 246.259 250.58 246.25C250.969 246.247 251.355 246.323 251.714 246.474C252.073 246.626 252.397 246.848 252.667 247.129C252.936 247.41 253.146 247.743 253.282 248.108C253.419 248.472 253.479 248.861 253.46 249.25V249.25Z" fill="black"/>
<path d="M267 249.25C266.952 250.056 266.6 250.813 266.016 251.37C265.431 251.927 264.657 252.241 263.85 252.25C263.46 252.255 263.074 252.179 262.714 252.029C262.355 251.878 262.03 251.655 261.76 251.374C261.49 251.093 261.281 250.759 261.145 250.394C261.009 250.029 260.949 249.639 260.97 249.25C261.016 248.443 261.367 247.684 261.952 247.127C262.537 246.57 263.312 246.256 264.12 246.25C264.509 246.247 264.895 246.323 265.254 246.474C265.613 246.626 265.937 246.848 266.207 247.129C266.476 247.41 266.686 247.743 266.822 248.108C266.959 248.472 267.019 248.861 267 249.25Z" fill="black"/>
<path d="M264.953 127.046C269.139 122.953 269.361 116.392 265.449 112.392C261.538 108.392 254.974 108.468 250.788 112.561C246.603 116.654 246.381 123.214 250.292 127.214C254.204 131.214 260.768 131.139 264.953 127.046Z" fill="#FBC940"/>
<path d="M277.54 143.43C275.048 146.694 271.842 149.344 268.167 151.176C264.492 153.009 260.446 153.975 256.34 154C252.358 154.034 248.429 153.087 244.899 151.244C241.37 149.401 238.348 146.717 236.1 143.43C240.96 138.59 248.65 135.43 257.17 135.43C265.69 135.43 273.11 138.59 277.54 143.43Z" fill="#FBC940"/>
<path opacity="0.1" d="M264.953 127.046C269.139 122.953 269.361 116.392 265.449 112.392C261.538 108.392 254.974 108.468 250.788 112.561C246.603 116.654 246.381 123.214 250.292 127.214C254.204 131.214 260.768 131.139 264.953 127.046Z" fill="white"/>
<path opacity="0.1" d="M277.54 143.43C275.048 146.694 271.842 149.344 268.167 151.176C264.492 153.009 260.446 153.975 256.34 154C252.358 154.034 248.429 153.087 244.899 151.244C241.37 149.401 238.348 146.717 236.1 143.43C240.96 138.59 248.65 135.43 257.17 135.43C265.69 135.43 273.11 138.59 277.54 143.43Z" fill="white"/>
<path d="M130.41 212.44C129.46 214.52 128.46 216.81 127.59 219.03C126.72 221.25 125.83 223.54 125.06 225.82C123.488 230.313 122.29 234.929 121.48 239.62L121.26 241.09C121.239 241.342 121.263 241.596 121.33 241.84C121.566 242.669 121.938 243.453 122.43 244.16C123.714 245.991 125.204 247.668 126.87 249.16C128.627 250.794 130.469 252.333 132.39 253.77C134.31 255.25 136.33 256.69 138.32 258.05L136.45 261.56C131.698 259.49 127.188 256.904 123 253.85C120.766 252.221 118.749 250.312 117 248.17C115.963 246.895 115.155 245.45 114.61 243.9C114.293 242.931 114.131 241.919 114.13 240.9C114.13 240.66 114.13 240.31 114.13 240.14V239.65L114.23 238.65C114.803 233.44 115.899 228.301 117.5 223.31C118.28 220.85 119.11 218.4 120.06 216.01C121.01 213.62 121.99 211.28 123.2 208.85L130.41 212.44Z" fill="#E58A7B"/>
<path d="M136.91 257.43L143.98 253.85L142.15 261.61C142.15 261.61 137.3 262.97 135.05 260.61L136.91 257.43Z" fill="#E58A7B"/>
<path d="M150.45 255.12L148.57 261.54L142.15 261.61L143.98 253.85L150.45 255.12Z" fill="#E58A7B"/>
<path d="M160.43 175C160.808 176.386 161.335 177.727 162 179C161.806 179.22 161.555 179.384 161.275 179.474C160.995 179.564 160.696 179.576 160.41 179.51L160.43 175Z" fill="#DF5753"/>
<path d="M160.22 175.06C160.634 175.06 160.97 174.545 160.97 173.91C160.97 173.275 160.634 172.76 160.22 172.76C159.806 172.76 159.47 173.275 159.47 173.91C159.47 174.545 159.806 175.06 160.22 175.06Z" fill="#263238"/>
<path d="M160 172.8L161.52 172.37C161.52 172.37 160.78 173.55 160 172.8Z" fill="#263238"/>
<path d="M140.9 182.34C141.81 186.99 142.72 195.52 139.46 198.63C139.46 198.63 140.74 203.35 149.39 203.35C158.9 203.35 153.93 198.63 153.93 198.63C148.74 197.39 148.87 193.54 149.78 189.92L140.9 182.34Z" fill="#E58A7B"/>
<path d="M138.37 171.74C138.85 179.51 138.89 182.81 142.81 186.8C148.72 192.8 158.16 190.52 160.01 182.8C161.68 175.8 160.62 164.28 153.01 161.19C151.34 160.502 149.521 160.251 147.727 160.462C145.933 160.672 144.222 161.337 142.756 162.393C141.29 163.45 140.118 164.862 139.351 166.498C138.583 168.133 138.246 169.938 138.37 171.74V171.74Z" fill="#E58A7B"/>
<path d="M139.14 163C135.24 164.42 130.04 163.36 132.08 175.39C134.24 188.13 130.92 192.32 130.92 192.32C130.92 192.32 145.71 195.47 160.81 192.13C160.81 192.13 156.2 184.07 157.49 178.13C159.14 170.63 157.84 167.86 157.84 167.86C157.84 167.86 144.62 161 139.14 163Z" fill="#263238"/>
<path d="M155.64 175.79C155.644 177.267 156.067 178.713 156.86 179.96C157.92 181.58 159.17 180.96 159.48 179.24C159.76 177.73 159.55 175.06 158.2 174.02C156.85 172.98 155.66 174 155.64 175.79Z" fill="#E58A7B"/>
<path d="M135.75 164.31C134.63 161.16 139.97 156.31 151.27 158.31C162.57 160.31 163.06 169.72 163.06 169.72L160.78 167L160.88 169.86L149.27 172.09L135.75 164.31Z" fill="#263238"/>
<path d="M136.71 199.16C136.643 198.703 136.758 198.239 137.028 197.865C137.299 197.492 137.705 197.239 138.16 197.16C141.68 196.58 149.68 195.4 153.7 195.96C156.7 196.38 157.48 198.12 157.61 199.55C157.63 199.8 157.597 200.052 157.512 200.289C157.427 200.525 157.292 200.74 157.117 200.92C156.942 201.1 156.73 201.241 156.496 201.332C156.262 201.423 156.011 201.464 155.76 201.45L138.38 200.67C137.97 200.649 137.58 200.488 137.276 200.213C136.972 199.937 136.772 199.566 136.71 199.16V199.16Z" fill="#407BFF"/>
<path opacity="0.6" d="M136.71 199.16C136.643 198.703 136.758 198.239 137.028 197.865C137.299 197.492 137.705 197.239 138.16 197.16C141.68 196.58 149.68 195.4 153.7 195.96C156.7 196.38 157.48 198.12 157.61 199.55C157.63 199.8 157.597 200.052 157.512 200.289C157.427 200.525 157.292 200.74 157.117 200.92C156.942 201.1 156.73 201.241 156.496 201.332C156.262 201.423 156.011 201.464 155.76 201.45L138.38 200.67C137.97 200.649 137.58 200.488 137.276 200.213C136.972 199.937 136.772 199.566 136.71 199.16V199.16Z" fill="black"/>
<path d="M146.76 373.86L153.21 378.34L164 363.71L157.55 359.24L146.76 373.86Z" fill="#E58A7B"/>
<path d="M131.72 373.57L138.53 377.45L148.08 361.98L141.27 358.1L131.72 373.57Z" fill="#E58A7B"/>
<path d="M163.99 363.71L158.43 371.25L151.98 366.78L157.54 359.24L163.99 363.71Z" fill="#CF6F64"/>
<path d="M141.26 358.1L148.08 361.99L143.16 369.96L136.34 366.07L141.26 358.1Z" fill="#CF6F64"/>
<path d="M152.2 248C152.2 248 177.38 279.73 172.65 310.08C168.84 334.59 146.74 367.78 146.74 367.78L136.35 362.62C143.673 347.945 149.923 332.759 155.05 317.18C156.631 312.343 157.092 307.211 156.399 302.17C155.707 297.128 153.877 292.311 151.05 288.08C138.29 269.45 117.85 280.54 131.6 248H152.2Z" fill="#407BFF"/>
<path opacity="0.6" d="M152.2 248C152.2 248 177.38 279.73 172.65 310.08C168.84 334.59 146.74 367.78 146.74 367.78L136.35 362.62C143.673 347.945 149.923 332.759 155.05 317.18C156.631 312.343 157.092 307.211 156.399 302.17C155.707 297.128 153.877 292.311 151.05 288.08C138.29 269.45 117.85 280.54 131.6 248H152.2Z" fill="black"/>
<path opacity="0.4" d="M164.55 268.38L160.89 264.74C160.89 265.03 167.98 308.8 169.97 321.1C171.144 317.507 172.044 313.83 172.66 310.1C175 295.21 170.11 280 164.55 268.38Z" fill="black"/>
<path d="M163.44 248C163.44 248 193.76 287.88 194.62 311.79C195.33 331.79 161.62 370.54 161.62 370.54L151.82 364.2C151.82 364.2 171.55 336.68 176.52 314.2C174.6 291.92 134 248 134 248H163.44Z" fill="#407BFF"/>
<path opacity="0.6" d="M163.44 248C163.44 248 193.76 287.88 194.62 311.79C195.33 331.79 161.62 370.54 161.62 370.54L151.82 364.2C151.82 364.2 171.55 336.68 176.52 314.2C174.6 291.92 134 248 134 248H163.44Z" fill="black"/>
<path d="M125.93 200.41C122.69 201.18 119.58 212.96 119.58 212.96L132.25 221.42C132.25 221.42 136.47 212.1 134.99 208.02C133.46 203.77 130 199.44 125.93 200.41Z" fill="#DEE9FF"/>
<path opacity="0.2" d="M128.41 208L127.53 218.27L132.24 221.43C133.541 218.502 134.503 215.436 135.11 212.29L128.41 208Z" fill="black"/>
<path d="M167.19 200.64C167.19 200.64 170.93 201.95 163.44 247.99H131.58C132.12 234.99 132.13 226.99 125.93 200.41C130.391 199.491 134.913 198.896 139.46 198.63C144.277 198.285 149.113 198.285 153.93 198.63C160.15 199.2 167.19 200.64 167.19 200.64Z" fill="#DEE9FF"/>
<path d="M170.43 208C171.15 210 171.91 212.15 172.71 214.22C173.51 216.29 174.27 218.42 175.08 220.52L177.53 226.8L178.15 228.37L178.47 229.15L178.62 229.54C178.62 229.61 178.62 229.61 178.62 229.6C178.437 229.342 178.198 229.13 177.92 228.98C177.524 228.747 177.078 228.613 176.62 228.59C176.239 228.578 175.86 228.65 175.51 228.8C175.05 229.01 175.05 229.1 175.06 229.09C175.143 229.023 175.217 228.946 175.28 228.86C175.834 228.133 176.313 227.353 176.71 226.53C177.18 225.61 177.63 224.63 178.08 223.64C178.96 221.64 179.77 219.57 180.58 217.48C181.39 215.39 182.16 213.28 182.91 211.15L185.19 204.77L189.04 205.77C188.28 210.33 187.3 214.77 186.12 219.29C185.55 221.54 184.88 223.77 184.12 226.02C183.74 227.15 183.32 228.27 182.84 229.42C182.34 230.668 181.724 231.867 181 233C180.734 233.381 180.44 233.742 180.12 234.08C179.609 234.632 178.99 235.071 178.3 235.37C177.688 235.633 177.025 235.756 176.36 235.73C175.615 235.702 174.889 235.485 174.25 235.1C173.497 234.63 172.871 233.981 172.43 233.21C172.28 232.95 172.15 232.69 172.06 232.5L171.87 232.12L171.49 231.34L170.73 229.79C169.73 227.71 168.73 225.61 167.86 223.5C166.99 221.39 166.07 219.25 165.21 217.1C164.35 214.95 163.58 212.8 162.85 210.48L170.43 208Z" fill="#E58A7B"/>
<path d="M167.19 200.64C171.02 201.55 175.33 212.87 175.33 212.87L163.94 222.56C163.94 222.56 156.57 210.22 158.06 206.15C159.61 201.91 162.19 199.45 167.19 200.64Z" fill="#DEE9FF"/>
<path d="M187 201.19L191 197.85L193.78 202.18L191.73 205.79C191.73 205.79 188.47 208.79 185.59 207.26C185.133 206.233 185.023 205.084 185.278 203.989C185.532 202.893 186.137 201.911 187 201.19V201.19Z" fill="#E58A7B"/>
<path d="M198.22 197.86L197.92 198.95L191.59 200.01L190.97 197.85L198.22 197.86Z" fill="#E58A7B"/>
<path d="M162.4 371.05L150.98 363.67L153.03 360.11L165.86 368L162.4 371.05Z" fill="#1A3166"/>
<path d="M143 376.93C141.998 376.808 141.035 376.466 140.18 375.93C140.145 375.918 140.114 375.895 140.092 375.864C140.071 375.834 140.059 375.797 140.059 375.76C140.059 375.723 140.071 375.686 140.092 375.656C140.114 375.625 140.145 375.602 140.18 375.59C140.49 375.49 143.18 374.66 143.96 375.3C144.048 375.373 144.114 375.468 144.153 375.575C144.192 375.682 144.201 375.798 144.18 375.91C144.166 376.09 144.106 376.264 144.007 376.414C143.907 376.565 143.77 376.687 143.61 376.77C143.423 376.872 143.213 376.927 143 376.93V376.93ZM140.75 375.83C142 376.47 143 376.7 143.48 376.46C143.585 376.402 143.672 376.318 143.735 376.217C143.798 376.115 143.834 375.999 143.84 375.88C143.84 375.72 143.84 375.65 143.75 375.61C143.33 375.27 141.83 375.53 140.73 375.83H140.75Z" fill="#263238"/>
<path d="M140.25 376C140.197 375.999 140.147 375.978 140.11 375.94C140.095 375.912 140.087 375.881 140.087 375.85C140.087 375.819 140.095 375.788 140.11 375.76C140.11 375.67 140.76 373.5 141.78 373.01C141.91 372.951 142.052 372.92 142.195 372.92C142.338 372.92 142.48 372.951 142.61 373.01C142.75 373.054 142.872 373.144 142.955 373.266C143.039 373.387 143.079 373.533 143.07 373.68C143 374.58 141.17 375.82 140.33 376.03L140.25 376ZM142.19 373.27C142.093 373.273 141.997 373.297 141.91 373.34C141.29 373.64 140.78 374.81 140.53 375.52C141.41 375.15 142.62 374.17 142.66 373.62C142.66 373.53 142.66 373.42 142.43 373.32C142.355 373.28 142.274 373.253 142.19 373.24V373.27Z" fill="#263238"/>
<path d="M157.27 381.25C156.14 381.25 154.57 379.8 153.71 378.91C153.688 378.879 153.676 378.843 153.676 378.805C153.676 378.767 153.688 378.731 153.71 378.7C153.73 378.668 153.758 378.641 153.791 378.624C153.825 378.606 153.862 378.598 153.9 378.6C154.3 378.6 157.77 379.12 158.26 380.1C158.312 380.188 158.339 380.288 158.339 380.39C158.339 380.492 158.312 380.592 158.26 380.68C158.187 380.833 158.075 380.964 157.937 381.062C157.799 381.16 157.638 381.221 157.47 381.24L157.27 381.25ZM154.37 379.05C155.63 380.27 156.74 380.95 157.37 380.87C157.48 380.856 157.585 380.814 157.676 380.75C157.767 380.685 157.84 380.6 157.89 380.5C157.912 380.466 157.924 380.426 157.924 380.385C157.924 380.344 157.912 380.304 157.89 380.27C157.63 379.73 155.78 379.27 154.37 379.05Z" fill="#263238"/>
<path d="M154.48 379C154.256 379.006 154.031 378.99 153.81 378.95C153.779 378.945 153.75 378.933 153.725 378.914C153.701 378.894 153.682 378.869 153.67 378.84C153.655 378.811 153.647 378.778 153.647 378.745C153.647 378.712 153.655 378.679 153.67 378.65C153.73 378.58 155.08 376.95 156.36 376.84C156.722 376.812 157.081 376.927 157.36 377.16C157.75 377.5 157.73 377.8 157.63 377.99C157.38 378.67 155.65 379 154.48 379ZM154.22 378.63C155.34 378.69 157.13 378.32 157.36 377.83C157.36 377.83 157.44 377.67 157.18 377.45C157.077 377.36 156.956 377.292 156.825 377.251C156.694 377.21 156.556 377.196 156.42 377.21C155.558 377.451 154.79 377.95 154.22 378.64V378.63Z" fill="#263238"/>
<path d="M140.52 374.92L132.04 372.52C131.894 372.476 131.736 372.487 131.598 372.552C131.46 372.616 131.35 372.73 131.29 372.87L128.43 379.3C128.363 379.465 128.331 379.642 128.337 379.819C128.344 379.997 128.387 380.172 128.466 380.331C128.544 380.491 128.655 380.632 128.792 380.746C128.929 380.859 129.089 380.942 129.26 380.99C132.26 381.77 133.7 381.99 137.43 383.06C139.73 383.7 143.01 384.89 146.18 385.79C149.35 386.69 150.41 383.6 149.18 382.94C143.62 380 143.18 377.94 141.66 375.74C141.388 375.342 140.984 375.051 140.52 374.92V374.92Z" fill="black"/>
<path d="M153.94 377.74L146.7 372.74C146.577 372.651 146.426 372.609 146.275 372.624C146.124 372.639 145.983 372.709 145.88 372.82L141.08 377.98C140.963 378.113 140.876 378.27 140.824 378.44C140.772 378.609 140.757 378.788 140.78 378.964C140.803 379.14 140.863 379.309 140.956 379.46C141.049 379.611 141.173 379.741 141.32 379.84C143.87 381.55 145.19 382.24 148.38 384.45C150.38 385.81 154.25 388.83 156.95 390.71C159.65 392.59 161.66 390.01 160.7 388.99C156.4 384.4 155.46 381.52 154.75 378.91C154.627 378.437 154.34 378.022 153.94 377.74Z" fill="black"/>
<path d="M148.07 368.44L135.02 361.95L136.37 358.41L150.31 365.25L148.07 368.44Z" fill="#1A3166"/>
<path d="M131.1 246.12L130 249C129.89 249.22 130.15 249.45 130.52 249.45H163.6C163.89 249.45 164.13 249.31 164.15 249.13L164.43 246.27C164.43 246.08 164.2 245.91 163.89 245.91H131.62C131.523 245.901 131.425 245.915 131.334 245.952C131.244 245.988 131.164 246.046 131.1 246.12V246.12Z" fill="#407BFF"/>
<path opacity="0.4" d="M131.1 246.12L130 249C129.89 249.22 130.15 249.45 130.52 249.45H163.6C163.89 249.45 164.13 249.31 164.15 249.13L164.43 246.27C164.43 246.08 164.2 245.91 163.89 245.91H131.62C131.523 245.901 131.425 245.915 131.334 245.952C131.244 245.988 131.164 246.046 131.1 246.12V246.12Z" fill="white"/>
<path d="M136.31 249.73H135.44C135.27 249.73 135.14 249.64 135.15 249.53L135.56 245.82C135.56 245.72 135.72 245.63 135.89 245.63H136.76C136.93 245.63 137.06 245.72 137.05 245.82L136.64 249.53C136.63 249.64 136.48 249.73 136.31 249.73Z" fill="#407BFF"/>
<path d="M156.71 249.73H155.85C155.68 249.73 155.55 249.64 155.56 249.53L155.96 245.82C155.96 245.72 156.13 245.63 156.3 245.63H157.16C157.33 245.63 157.47 245.72 157.45 245.82L157.05 249.53C157 249.64 156.89 249.73 156.71 249.73Z" fill="#407BFF"/>
<g style="mix-blend-mode:multiply">
<path d="M135.55 419.08C150.346 419.08 162.34 418.211 162.34 417.14C162.34 416.069 150.346 415.2 135.55 415.2C120.754 415.2 108.76 416.069 108.76 417.14C108.76 418.211 120.754 419.08 135.55 419.08Z" fill="#F5F5F5"/>
</g>
<path d="M151.87 414.4C147.13 413.02 141.87 411.25 138.69 409.4C138.6 409.34 138.5 409.31 138.41 409.26V387.8H148C148.728 387.757 149.412 387.437 149.912 386.907C150.412 386.376 150.691 385.674 150.691 384.945C150.691 384.216 150.412 383.514 149.912 382.983C149.412 382.453 148.728 382.133 148 382.09H138.46V284.27H132.7V382.09H123.17C122.781 382.067 122.391 382.124 122.025 382.257C121.658 382.39 121.323 382.596 121.039 382.864C120.756 383.131 120.53 383.454 120.375 383.812C120.221 384.169 120.141 384.555 120.141 384.945C120.141 385.335 120.221 385.721 120.375 386.078C120.53 386.436 120.756 386.759 121.039 387.026C121.323 387.294 121.658 387.5 122.025 387.633C122.391 387.766 122.781 387.823 123.17 387.8H132.7V409.23C132.61 409.23 132.52 409.31 132.43 409.37C129.2 411.25 123.98 413.02 119.24 414.37C118.92 414.467 118.645 414.675 118.465 414.957C118.285 415.239 118.212 415.576 118.259 415.907C118.306 416.239 118.47 416.542 118.722 416.762C118.973 416.983 119.295 417.106 119.63 417.11H151.48C151.8 417.088 152.102 416.957 152.337 416.74C152.572 416.522 152.725 416.23 152.771 415.913C152.816 415.596 152.752 415.272 152.588 414.997C152.424 414.722 152.171 414.511 151.87 414.4Z" fill="#E0E0E0"/>
<path d="M153.34 274.31H117.78C114.919 274.31 112.6 276.629 112.6 279.49V290.06C112.6 292.921 114.919 295.24 117.78 295.24H153.34C156.201 295.24 158.52 292.921 158.52 290.06V279.49C158.52 276.629 156.201 274.31 153.34 274.31Z" fill="#FBC940"/>
<path d="M117.45 295.25V297.07C117.45 298.57 119.08 299.79 121.08 299.79H150.08C152.08 299.79 153.71 298.57 153.71 297.07V295.25H117.45Z" fill="#FBC940"/>
<path opacity="0.3" d="M117.45 295.25V297.07C117.45 298.57 119.08 299.79 121.08 299.79H150.08C152.08 299.79 153.71 298.57 153.71 297.07V295.25H117.45Z" fill="white"/>
</svg>
